<svg width="29" height="29" viewBox="0 0 29 29" fill="none" xmlns="http://www.w3.org/2000/svg">
<rect width="29" height="29" rx="7" fill="white"/>
<g clip-path="url(#clip0)">
<path d="M21.2364 20.5199C16.7465 20.7434 12.2676 20.7434 7.77761 20.5199C7.00539 20.4752 6.27729 19.7936 6.20006 19.0115C5.94633 16.2069 5.94633 13.4806 6.20006 10.676C6.27729 9.89388 7.00539 9.2123 7.77761 9.1676C12.2676 8.94413 16.7465 8.94413 21.2364 9.1676C22.0086 9.2123 22.7367 9.89388 22.8139 10.676C23.0677 13.4806 23.0677 16.2069 22.8139 19.0115C22.7257 19.7936 22.0086 20.4752 21.2364 20.5199Z" fill="#0049A2"/>
<path d="M17.1862 14.8447L12.6963 12.3418V17.3475L17.1862 14.8447Z" fill="white"/>
</g>
<defs>
<clipPath id="clip0">
<rect width="17" height="11.6875" fill="white" transform="translate(6 9)"/>
</clipPath>
</defs>
</svg>
