<svg width="938" height="405" viewBox="0 0 938 405" fill="none" xmlns="http://www.w3.org/2000/svg">
<g clip-path="url(#clip0)">
<path d="M376.633 100.941C455.66 67.8696 462.575 58.738 495.42 57.2572C594.697 52.8148 669.031 130.557 688.046 150.548C729.288 193.738 794.238 285.548 766.579 326.023C742.871 360.575 677.427 320.594 550.738 356.873C495.914 372.669 499.618 382.54 451.955 393.4C414.665 401.791 314.153 424.497 233.398 367.486C182.772 331.7 128.441 256.425 148.939 203.116C164.25 161.901 210.184 170.292 376.633 100.941Z" fill="#D3EDFF"/>
<path d="M380.338 386.685C412.253 386.685 438.126 384.255 438.126 381.256C438.126 378.257 412.253 375.826 380.338 375.826C348.422 375.826 322.55 378.257 322.55 381.256C322.55 384.255 348.422 386.685 380.338 386.685Z" fill="#0049A2"/>
<path d="M648.78 386.685C680.696 386.685 706.568 384.255 706.568 381.256C706.568 378.257 680.696 375.826 648.78 375.826C616.865 375.826 590.992 378.257 590.992 381.256C590.992 384.255 616.865 386.685 648.78 386.685Z" fill="#0049A2"/>
<path d="M649.521 375.631C686.483 375.631 716.447 345.687 716.447 308.748C716.447 271.81 686.483 241.865 649.521 241.865C612.559 241.865 582.596 271.81 582.596 308.748C582.596 345.687 612.559 375.631 649.521 375.631Z" stroke="black" stroke-width="5" stroke-miterlimit="10"/>
<path d="M677.428 280.859L621.615 336.636" stroke="#0049A2" stroke-width="3" stroke-miterlimit="10"/>
<path d="M688.294 315.164L610.502 302.084" stroke="#0049A2" stroke-width="3" stroke-miterlimit="10"/>
<path d="M650.509 309.489L636.679 285.056L613.218 176.217L597.66 159.188" stroke="#0049A2" stroke-width="3" stroke-miterlimit="10"/>
<path d="M456.154 292.952L450.474 315.411H468.255L478.627 286.535L456.154 292.952Z" fill="#FFD1A2"/>
<path d="M510.484 332.44L447.757 330.219C447.757 324.79 448.004 319.113 448.004 313.684H471.465C479.614 321.334 486.282 323.802 491.221 324.79C493.444 325.283 497.642 325.777 503.075 327.998C506.286 329.479 509.002 331.206 510.484 332.44Z" fill="black"/>
<path d="M510.484 332.442V335.404H447.757V330.221L510.484 332.442Z" fill="#00FFFF"/>
<path d="M507.273 323.802L549.75 313.684H587.041V318.62H551.232L507.273 329.726V323.802Z" fill="#0049A2"/>
<path d="M509.249 344.535C520.706 344.535 529.994 335.253 529.994 323.804C529.994 312.354 520.706 303.072 509.249 303.072C497.792 303.072 488.505 312.354 488.505 323.804C488.505 335.253 497.792 344.535 509.249 344.535Z" stroke="#0049A2" stroke-width="2" stroke-miterlimit="10"/>
<path d="M508.014 327.258L464.797 337.87H449.485" stroke="#0049A2" stroke-width="2" stroke-miterlimit="10"/>
<path d="M477.145 172.76L476.404 243.592L449.485 305.045L477.145 309.488L512.706 233.967L520.362 165.85L477.145 172.76Z" fill="black"/>
<path d="M448.992 176.956C452.449 170.046 473.194 172.514 487.517 179.178C503.569 186.828 513.695 200.403 511.966 202.624C510.237 204.845 498.383 192.752 481.59 195.22C473.441 196.454 471.465 199.909 465.538 198.922C455.166 196.947 446.028 182.88 448.992 176.956Z" fill="#0049A2"/>
<path d="M477.886 195.961L512.46 323.804H507.274L473.935 195.961H477.886Z" fill="#0049A2"/>
<path d="M613.218 176.215L637.914 170.539" stroke="#0049A2" stroke-width="3" stroke-miterlimit="10"/>
<path d="M380.338 375.631C417.299 375.631 447.263 345.687 447.263 308.748C447.263 271.81 417.299 241.865 380.338 241.865C343.376 241.865 313.412 271.81 313.412 308.748C313.412 345.687 343.376 375.631 380.338 375.631Z" stroke="black" stroke-width="5" stroke-miterlimit="10"/>
<path d="M376.386 269.508L384.288 347.744" stroke="#0049A2" stroke-width="3" stroke-miterlimit="10"/>
<path d="M409.972 282.588L350.702 334.663" stroke="#0049A2" stroke-width="3" stroke-miterlimit="10"/>
<path d="M509.249 323.803C545.798 285.302 579.138 250.256 615.687 212.002C570.741 215.21 529.005 214.964 484.059 218.172C449.485 248.282 415.158 278.638 380.584 308.748C423.308 313.684 466.278 318.62 509.249 323.803Z" stroke="#0049A2" stroke-width="3" stroke-miterlimit="10"/>
<path d="M582.348 107.605L569.26 113.281L541.6 125.375L538.884 126.609C538.884 126.115 538.884 125.375 538.637 124.881C538.39 121.673 537.896 118.464 537.649 115.256C537.402 112.294 537.155 109.579 536.908 106.618C536.167 99.7073 535.673 92.5501 534.933 85.6397C545.552 79.4697 555.924 73.0528 566.296 66.8828C567.531 69.5976 568.519 72.5592 569.507 75.274C569.507 75.274 569.507 75.274 569.507 75.5208C570.741 78.4824 571.729 81.1973 572.964 84.1589C576.421 91.8097 579.385 99.7073 582.348 107.605Z" fill="white"/>
<path d="M550.245 268.272L544.812 290.731H562.345L572.718 261.855L550.245 268.272Z" fill="#FFD1A2"/>
<path d="M455.907 125.128C450.721 127.35 449.98 136.234 449.486 139.443C448.004 154.004 457.142 167.331 461.587 173.008C492.703 180.905 524.067 188.803 555.184 196.701C550.491 223.108 545.799 249.763 541.107 276.17C553.455 275.924 565.556 275.43 577.904 275.183C583.831 245.32 589.758 215.211 595.685 185.348C593.709 180.659 588.029 168.565 574.693 160.421C566.544 155.485 558.888 153.757 553.949 153.264C549.751 152.03 470.971 127.103 460.352 124.882C459.611 124.635 457.882 124.388 455.907 125.128Z" fill="black"/>
<path d="M573.458 8.63867C576.174 8.63867 578.644 13.8215 579.385 16.7831C580.125 19.7447 579.878 21.9659 579.631 23.4467C594.202 25.9147 609.019 28.6295 623.59 31.0975C624.084 35.2932 623.096 38.5016 622.355 40.476C621.367 43.1908 620.379 43.6844 620.379 45.412C620.379 47.88 621.861 48.6204 622.849 53.0628C623.343 55.5308 623.096 56.2712 622.849 56.518C622.108 57.2584 620.379 55.284 619.145 55.7776C617.416 56.2712 617.663 59.9732 616.675 63.4284C615.44 68.1176 611.489 73.5473 606.056 74.7813C600.376 76.2621 597.659 69.5985 591.238 69.3517C587.04 69.1049 581.113 71.5729 573.705 83.1725C577.162 75.5217 575.963 67.4366 572.999 62.5006C570.036 57.3178 565.499 56.0006 565.499 56.0006C564.758 55.507 562.993 54.5006 562.499 54.5006C566.944 53.5134 571.976 51.0884 572.223 48.8672C572.223 48.1268 571.976 47.3864 571.729 46.3992C570.988 44.178 569.753 42.6972 569.506 42.4504C567.284 39.4888 566.79 32.8251 566.543 31.0975C565.555 22.2127 569.259 8.88547 573.458 8.63867Z" fill="#FFD1A2"/>
<path d="M651.743 31.8377L651.002 35.5397L566.543 21.2252H566.049C566.543 18.2636 567.778 13.0808 571.729 8.3916C579.385 -0.49323 591.979 -1.23363 599.882 0.740774C611.736 3.45558 621.367 13.8212 624.578 27.1484L651.743 31.8377Z" fill="black"/>
<path d="M566.296 66.6373C555.924 72.8073 545.305 79.2242 534.932 85.3942C535.673 92.3046 536.167 99.4618 536.908 106.372C537.155 109.334 537.402 112.295 537.649 115.01C537.896 118.219 538.39 121.427 538.637 124.635C538.637 124.635 538.637 124.635 538.39 124.635C536.414 135.248 532.216 141.418 528.511 145.12C527.277 146.107 526.289 147.094 525.301 147.835C506.779 161.162 471.464 148.328 450.967 131.052C441.089 122.908 434.668 113.529 435.409 105.879C435.656 103.904 437.137 101.436 439.607 98.9682C445.534 93.2918 457.882 86.1346 476.65 75.2753C508.508 56.7653 522.338 53.0633 535.673 52.5697C544.811 52.3229 556.665 52.0761 563.579 59.7269C565.061 61.4545 566.049 63.1821 567.037 65.4033C568.272 68.1181 568.765 71.3265 569.259 74.7817C568.519 72.3137 567.531 69.5989 566.296 66.6373Z" fill="white"/>
<path d="M576.669 69.8442L575.928 67.3762C574.693 62.1934 570.495 57.9978 565.555 55.0362C561.357 52.5682 556.912 51.0874 555.43 50.5938C555.183 50.5938 554.936 50.5938 554.936 50.5938C545.552 47.879 537.649 48.1258 531.228 49.113C531.228 48.3726 531.475 47.1386 530.981 45.9046C529.994 41.4622 526.042 38.9942 524.314 37.7602C514.188 31.5901 494.185 34.5517 492.703 34.7985C485.294 36.0326 474.675 38.5006 462.574 44.6706C460.846 43.4366 458.376 41.4622 454.919 40.9686C446.275 39.4878 439.113 45.9046 433.186 51.0874C427.753 56.0234 423.555 59.9722 424.296 64.6614C425.037 69.1039 429.729 71.5719 431.458 72.5591C430.47 77.0015 429.235 85.6395 433.927 93.7839C434.915 95.5115 436.397 97.4859 440.101 100.201C443.065 102.422 447.757 104.89 454.672 108.098C477.392 117.724 498.383 119.945 510.978 120.438C519.374 120.932 522.338 119.451 526.289 118.958C530.488 118.217 534.439 117.23 538.143 115.996C537.896 113.034 537.649 110.32 537.402 107.358C530.241 109.579 523.82 110.566 520.609 111.06C490.233 115.502 465.291 104.643 452.943 97.9795C461.093 90.5755 481.343 72.5591 506.78 63.1806C518.634 58.7382 527.771 57.5042 535.427 56.517C547.528 55.0362 552.467 56.0234 556.171 57.5042C558.147 58.2446 564.568 60.9594 568.025 66.6358C568.766 67.8698 569.013 69.5975 569.507 71.0783C570.001 73.0527 569.754 73.7931 570.001 75.2739C571.235 78.2355 572.717 81.9375 573.705 84.8991C575.928 79.2227 577.903 76.2611 576.669 69.8442Z" fill="black"/>
<path d="M649.521 177.944C648.039 178.191 646.311 176.71 644.829 175.229C642.112 172.761 642.606 171.28 640.877 170.046C637.914 168.072 634.951 170.787 630.752 169.059C629.024 168.319 627.048 167.085 625.319 164.123H549.503C548.515 162.395 547.281 159.927 546.046 156.719C545.058 154.251 544.317 152.03 543.823 149.808C542.095 142.651 542.342 136.481 541.848 125.128L569.507 113.035C570.001 122.414 570.742 131.792 571.236 141.17C572.223 141.664 573.211 141.911 574.446 142.404C578.891 143.638 583.336 144.872 587.782 146.353C601.611 150.055 615.194 153.264 628.036 155.978C630.505 155.238 636.185 154.251 642.359 156.719C643.594 157.212 652.978 161.161 653.719 168.812C653.966 172.761 651.991 177.697 649.521 177.944Z" fill="#FFD1A2"/>
<path d="M608.773 310.229L541.848 307.761C541.848 301.591 542.095 295.174 542.095 289.004H567.037C575.681 297.642 582.843 300.604 588.029 301.591C590.498 302.084 594.943 302.578 600.623 305.293C604.328 306.774 607.044 308.748 608.773 310.229Z" fill="black"/>
<path d="M608.773 310.228V313.684H541.848V307.514L608.773 310.228Z" fill="#00FFFF"/>
<path d="M593.956 21.7181C595.19 24.6797 592.968 27.1477 594.696 34.0581C594.943 35.0453 595.437 36.7729 594.943 37.2665C593.956 37.7601 591.486 32.8241 589.016 33.3177C587.535 33.5645 586.547 36.0325 586.547 38.0069C586.547 41.7089 590.251 45.4109 592.227 44.9173C594.203 44.4237 594.203 40.2281 595.437 40.2281C596.919 40.2281 595.931 47.1385 599.389 51.3341C604.822 57.5042 616.429 53.5554 618.404 58.7382C618.651 59.4786 618.404 60.4658 618.157 62.1934C617.663 64.9082 616.923 70.091 612.724 73.5462C609.761 76.0142 604.822 77.7418 600.376 76.0142C596.919 74.5334 595.19 71.5718 593.215 67.1294C588.029 56.7638 590.745 52.3214 585.806 46.8917C583.336 44.1769 578.891 41.2153 575.434 42.4493C572.717 43.1897 572.47 45.9045 570.742 45.6577C567.778 45.4109 565.555 36.2793 566.049 28.1349C566.296 23.6925 566.543 20.9777 568.519 18.5097C574.199 11.3524 591.486 15.0544 593.956 21.7181Z" fill="black"/>
<path d="M636.679 170.787L644.581 178.685" stroke="#0049A2" stroke-width="3" stroke-miterlimit="10"/>
<path d="M610.008 35.7871H618.404" stroke="black" stroke-width="0.5" stroke-miterlimit="10"/>
<path d="M616.675 40.2285L611.736 41.4625L614.947 44.1773" stroke="black" stroke-width="0.5" stroke-miterlimit="10"/>
<path d="M509.249 347.25C522.206 347.25 532.71 336.752 532.71 323.803C532.71 310.855 522.206 300.357 509.249 300.357C496.292 300.357 485.788 310.855 485.788 323.803C485.788 336.752 496.292 347.25 509.249 347.25Z" fill="#0049A2"/>
<path d="M509.249 341.079C518.524 341.079 526.042 333.565 526.042 324.296C526.042 315.027 518.524 307.514 509.249 307.514C499.975 307.514 492.456 315.027 492.456 324.296C492.456 333.565 499.975 341.079 509.249 341.079Z" fill="#D3EDFF"/>
<path d="M504.804 317.879L507.767 328.245L516.411 322.321" stroke="black" stroke-width="2" stroke-miterlimit="10"/>
<path d="M391.691 307.65C391.749 301.38 386.709 296.251 380.435 296.193C374.161 296.136 369.029 301.172 368.971 307.442C368.914 313.712 373.953 318.841 380.227 318.899C386.501 318.956 391.634 313.92 391.691 307.65Z" fill="#0049A2"/>
<path d="M660.805 307.568C660.862 301.298 655.823 296.169 649.549 296.111C643.275 296.054 638.142 301.09 638.085 307.36C638.027 313.63 643.067 318.759 649.34 318.817C655.614 318.874 660.747 313.838 660.805 307.568Z" fill="#0049A2"/>
<path d="M239.325 122.66C211.419 122.66 188.946 145.119 188.946 173.007C188.946 200.896 239.325 269.507 239.325 269.507C239.325 269.507 289.704 200.896 289.704 173.007C289.457 145.119 266.984 122.66 239.325 122.66ZM239.325 196.207C228.212 196.207 219.075 187.075 219.075 175.969C219.075 164.863 228.212 155.731 239.325 155.731C250.438 155.731 259.576 164.863 259.576 175.969C259.576 187.322 250.438 196.207 239.325 196.207Z" fill="#0049A2"/>
<path d="M727.313 154.004C713.483 154.004 702.123 165.357 702.123 179.178C702.123 192.998 727.313 227.304 727.313 227.304C727.313 227.304 752.502 192.998 752.502 179.178C752.255 165.11 741.142 154.004 727.313 154.004ZM727.313 190.777C721.633 190.777 717.187 186.335 717.187 180.658C717.187 174.982 721.633 170.54 727.313 170.54C732.993 170.54 737.438 174.982 737.438 180.658C737.438 186.088 732.746 190.777 727.313 190.777Z" fill="#0049A2"/>
<path d="M534 77.5L551 66H568L575.5 91.5L538 103L534 77.5Z" fill="white"/>
</g>
<path d="M121 250.55C98.8637 267.001 71.2351 270.656 50.0976 259.357C30.7908 248.888 16.1443 233.601 21.9696 216.984C24.4662 210.005 35.4511 194.718 59.9174 181.923C100.695 160.487 106.686 157.33 106.686 152.844C106.187 136.892 29.7922 130.91 30.2915 120.441C30.6244 110.305 100.195 106.981 100.029 101.83C100.029 98.6731 74.5638 95.6821 2.16357 93.0234" stroke="black" stroke-width="2" stroke-miterlimit="10" stroke-dasharray="12 12"/>
<path d="M6.6575 99.6703C10.3343 99.6703 13.315 96.6945 13.315 93.0237C13.315 89.3528 10.3343 86.377 6.6575 86.377C2.98066 86.377 0 89.3528 0 93.0237C0 96.6945 2.98066 99.6703 6.6575 99.6703Z" fill="black"/>
<path d="M931.157 134.468C934.936 134.468 938 131.409 938 127.636C938 123.863 934.936 120.805 931.157 120.805C927.378 120.805 924.314 123.863 924.314 127.636C924.314 131.409 927.378 134.468 931.157 134.468Z" fill="black"/>
<path d="M779 214.467C790.704 210.512 809.431 205.658 832.84 206.737C852.108 207.635 895.144 209.433 906.128 236.04C913.511 254.018 905.408 280.804 889.021 288.175C867.593 297.703 839.323 271.096 827.438 255.995C797.187 217.523 791.245 149.388 826.898 119.186C847.066 102.107 873.716 103.006 877.857 103.186C908.109 104.624 927.016 123.141 931.337 127.635" stroke="black" stroke-width="2" stroke-miterlimit="10" stroke-dasharray="12 12"/>
<defs>
<clipPath id="clip0">
<rect width="629" height="405" fill="white" transform="translate(144)"/>
</clipPath>
</defs>
</svg>
