<svg width="338" height="218" viewBox="0 0 338 218" fill="none" xmlns="http://www.w3.org/2000/svg">
<g clip-path="url(#clip0)">
<path d="M124.858 54.177C167.273 36.4271 170.984 31.526 188.613 30.7312C241.896 28.3469 281.793 70.0724 291.999 80.8018C314.134 103.983 348.993 153.259 334.148 174.982C321.424 193.527 286.299 172.068 218.303 191.54C188.878 200.018 190.866 205.316 165.285 211.144C145.27 215.648 91.324 227.835 47.9815 197.236C20.8095 178.029 -8.3506 137.628 2.65072 109.016C10.8686 86.8951 35.5221 91.3988 124.858 54.177Z" fill="#D3EDFF"/>
<path d="M126.847 207.541C143.976 207.541 157.863 206.236 157.863 204.626C157.863 203.017 143.976 201.712 126.847 201.712C109.717 201.712 95.8311 203.017 95.8311 204.626C95.8311 206.236 109.717 207.541 126.847 207.541Z" fill="#0049A2"/>
<path d="M270.924 207.541C288.054 207.541 301.94 206.236 301.94 204.626C301.94 203.017 288.054 201.712 270.924 201.712C253.794 201.712 239.908 203.017 239.908 204.626C239.908 206.236 253.794 207.541 270.924 207.541Z" fill="#0049A2"/>
<path d="M271.321 201.607C291.159 201.607 307.241 185.536 307.241 165.71C307.241 145.885 291.159 129.813 271.321 129.813C251.483 129.813 235.401 145.885 235.401 165.71C235.401 185.536 251.483 201.607 271.321 201.607Z" stroke="black" stroke-width="5" stroke-miterlimit="10"/>
<path d="M286.299 150.742L256.344 180.678" stroke="#0049A2" stroke-width="3" stroke-miterlimit="10"/>
<path d="M292.131 169.154L250.379 162.134" stroke="#0049A2" stroke-width="3" stroke-miterlimit="10"/>
<path d="M271.851 166.107L264.429 152.994L251.837 94.5779L243.486 85.438" stroke="#0049A2" stroke-width="3" stroke-miterlimit="10"/>
<path d="M167.538 157.232L164.489 169.287H174.033L179.6 153.788L167.538 157.232Z" fill="#FFD1A2"/>
<path d="M196.698 178.426L163.031 177.234C163.031 174.32 163.164 171.273 163.164 168.359H175.756C180.13 172.466 183.708 173.79 186.359 174.32C187.552 174.585 189.806 174.85 192.722 176.042C194.445 176.837 195.903 177.764 196.698 178.426Z" fill="black"/>
<path d="M196.698 178.426V180.016H163.031V177.234L196.698 178.426Z" fill="#00FFFF"/>
<path d="M194.975 173.79L217.773 168.359H237.787V171.009H218.568L194.975 176.969V173.79Z" fill="#0049A2"/>
<path d="M196.035 184.917C202.184 184.917 207.169 179.935 207.169 173.79C207.169 167.645 202.184 162.663 196.035 162.663C189.886 162.663 184.901 167.645 184.901 173.79C184.901 179.935 189.886 184.917 196.035 184.917Z" stroke="#0049A2" stroke-width="2" stroke-miterlimit="10"/>
<path d="M195.372 175.645L172.177 181.341H163.959" stroke="#0049A2" stroke-width="2" stroke-miterlimit="10"/>
<path d="M178.804 92.7234L178.407 130.74L163.959 163.723L178.804 166.107L197.891 125.574L202 89.0145L178.804 92.7234Z" fill="black"/>
<path d="M163.693 94.9752C165.549 91.2663 176.683 92.5909 184.371 96.1674C192.986 100.274 198.421 107.559 197.493 108.751C196.565 109.943 190.203 103.453 181.19 104.777C176.816 105.44 175.755 107.294 172.574 106.764C167.007 105.705 162.103 98.1543 163.693 94.9752Z" fill="#0049A2"/>
<path d="M179.202 105.175L197.758 173.79H194.975L177.081 105.175H179.202Z" fill="#0049A2"/>
<path d="M251.837 94.5779L265.092 91.5312" stroke="#0049A2" stroke-width="3" stroke-miterlimit="10"/>
<path d="M126.846 201.607C146.684 201.607 162.766 185.536 162.766 165.71C162.766 145.885 146.684 129.813 126.846 129.813C107.008 129.813 90.9258 145.885 90.9258 165.71C90.9258 185.536 107.008 201.607 126.846 201.607Z" stroke="black" stroke-width="5" stroke-miterlimit="10"/>
<path d="M124.726 144.649L128.967 186.639" stroke="#0049A2" stroke-width="3" stroke-miterlimit="10"/>
<path d="M142.751 151.669L110.94 179.619" stroke="#0049A2" stroke-width="3" stroke-miterlimit="10"/>
<path d="M196.035 173.79C215.652 153.126 233.545 134.317 253.162 113.785C229.039 115.507 206.639 115.374 182.515 117.096C163.959 133.257 145.535 149.55 126.979 165.71C149.909 168.359 172.972 171.008 196.035 173.79Z" stroke="#0049A2" stroke-width="3" stroke-miterlimit="10"/>
<path d="M235.268 57.7534L228.243 60.8001L213.398 67.2907L211.94 67.953C211.94 67.6881 211.94 67.2907 211.808 67.0258C211.675 65.3038 211.41 63.5818 211.277 61.8598C211.145 60.2702 211.012 58.8131 210.88 57.2236C210.482 53.5146 210.217 49.6732 209.819 45.9643C215.519 42.6528 221.086 39.2087 226.653 35.8972C227.315 37.3543 227.846 38.9438 228.376 40.4009C228.376 40.4009 228.376 40.4009 228.376 40.5334C229.039 42.1229 229.569 43.58 230.231 45.1695C232.087 49.2759 233.678 53.5146 235.268 57.7534Z" fill="white"/>
<path d="M218.037 143.986L215.121 156.04H224.532L230.099 140.542L218.037 143.986Z" fill="#FFD1A2"/>
<path d="M167.405 67.1582C164.621 68.3504 164.223 73.119 163.958 74.841C163.163 82.6563 168.067 89.8092 170.453 92.8559C187.154 97.0946 203.987 101.333 220.688 105.572C218.17 119.746 215.651 134.052 213.133 148.225C219.76 148.093 226.255 147.828 232.882 147.695C236.063 131.667 239.244 115.507 242.426 99.479C241.365 96.9622 238.317 90.4715 231.159 86.1003C226.785 83.4511 222.676 82.5238 220.025 82.2589C217.772 81.5966 175.49 68.2179 169.79 67.0258C169.393 66.8933 168.465 66.7609 167.405 67.1582Z" fill="black"/>
<path d="M230.497 4.63617C231.955 4.63617 233.28 7.41787 233.678 9.00742C234.076 10.597 233.943 11.7891 233.811 12.5839C241.631 13.9085 249.584 15.3656 257.404 16.6902C257.669 18.9421 257.139 20.6641 256.741 21.7238C256.211 23.1809 255.681 23.4458 255.681 24.373C255.681 25.6976 256.476 26.095 257.006 28.4793C257.271 29.804 257.139 30.2013 257.006 30.3338C256.608 30.7312 255.681 29.6715 255.018 29.9364C254.09 30.2013 254.223 32.1883 253.692 34.0427C253.03 36.5595 250.909 39.4737 247.993 40.136C244.944 40.9308 243.486 37.3543 240.04 37.2218C237.787 37.0894 234.606 38.414 230.629 44.6397C232.485 40.5334 231.841 36.194 230.251 33.5448C228.66 30.7631 226.225 30.0561 226.225 30.0561C225.828 29.7912 224.88 29.251 224.615 29.251C227.001 28.7212 229.702 27.4196 229.834 26.2275C229.834 25.8301 229.702 25.4327 229.569 24.9029C229.171 23.7107 228.509 22.9159 228.376 22.7835C227.183 21.1939 226.918 17.6175 226.786 16.6902C226.255 11.9216 228.244 4.76863 230.497 4.63617Z" fill="#FFD1A2"/>
<path d="M272.514 17.0876L272.116 19.0745L226.786 11.3917H226.521C226.786 9.80217 227.448 7.02046 229.569 4.50369C233.678 -0.264948 240.438 -0.662334 244.679 0.397362C251.042 1.85444 256.211 7.41785 257.934 14.5708L272.514 17.0876Z" fill="black"/>
<path d="M226.653 35.7647C221.086 39.0763 215.386 42.5203 209.819 45.8319C210.217 49.5408 210.482 53.3822 210.88 57.0911C211.012 58.6807 211.145 60.2702 211.277 61.7273C211.41 63.4493 211.675 65.1713 211.807 66.8933C211.807 66.8933 211.807 66.8933 211.675 66.8933C210.615 72.5892 208.361 75.9007 206.373 77.8877C205.71 78.4175 205.18 78.9474 204.65 79.3448C194.709 86.4977 175.755 79.6097 164.754 70.3373C159.452 65.9661 156.006 60.9325 156.403 56.8262C156.536 55.7665 157.331 54.4419 158.656 53.1173C161.838 50.0706 168.465 46.2292 178.538 40.4009C195.637 30.4663 203.059 28.4793 210.217 28.2144C215.121 28.0819 221.483 27.9495 225.195 32.0558C225.99 32.983 226.52 33.9103 227.05 35.1024C227.713 36.5595 227.978 38.2815 228.243 40.136C227.846 38.8114 227.315 37.3543 226.653 35.7647Z" fill="white"/>
<path d="M232.22 37.4867L231.822 36.1621C231.16 33.3804 228.906 31.1286 226.256 29.539C224.002 28.2144 221.616 27.4196 220.821 27.1547C220.689 27.1547 220.556 27.1547 220.556 27.1547C215.519 25.6976 211.278 25.8301 207.832 26.3599C207.832 25.9625 207.964 25.3002 207.699 24.6379C207.169 22.2536 205.048 20.929 204.12 20.2667C198.686 16.9551 187.95 18.5447 187.154 18.6771C183.178 19.3394 177.479 20.6641 170.984 23.9756C170.056 23.3133 168.731 22.2536 166.875 21.9887C162.236 21.1939 158.392 24.6379 155.211 27.4196C152.295 30.0689 150.042 32.1883 150.439 34.705C150.837 37.0894 153.355 38.414 154.283 38.9438C153.753 41.3281 153.09 45.9643 155.608 50.3356C156.139 51.2628 156.934 52.3225 158.922 53.7796C160.513 54.9717 163.031 56.2964 166.742 58.0184C178.937 63.1844 190.203 64.3765 196.963 64.6415C201.469 64.9064 203.06 64.1116 205.181 63.8467C207.434 63.4493 209.555 62.9195 211.543 62.2571C211.41 60.6676 211.278 59.2105 211.145 57.621C207.301 58.8131 203.855 59.343 202.132 59.6079C185.829 61.9922 172.442 56.1639 165.815 52.5874C170.189 48.6136 181.057 38.9438 194.71 33.9103C201.072 31.5259 205.976 30.8636 210.085 30.3338C216.58 29.539 219.231 30.0689 221.219 30.8636C222.279 31.261 225.725 32.7181 227.581 35.7647C227.979 36.427 228.111 37.3543 228.376 38.149C228.641 39.2087 228.509 39.6061 228.641 40.4009C229.304 41.9904 230.099 43.9774 230.63 45.5669C231.822 42.5203 232.883 40.9307 232.22 37.4867Z" fill="black"/>
<path d="M271.321 95.5051C270.526 95.6375 269.598 94.8428 268.803 94.048C267.345 92.7234 267.61 91.9286 266.682 91.2663C265.092 90.2066 263.501 91.6637 261.248 90.7364C260.32 90.3391 259.26 89.6767 258.332 88.0872H217.64C217.11 87.16 216.447 85.8353 215.785 84.1133C215.254 82.7887 214.857 81.5966 214.592 80.4044C213.664 76.563 213.796 73.2514 213.531 67.1582L228.376 60.6675C228.641 65.7011 229.039 70.7347 229.304 75.7682C229.834 76.0331 230.365 76.1656 231.027 76.4305C233.413 77.0928 235.799 77.7552 238.185 78.5499C245.607 80.5369 252.897 82.2589 259.79 83.7159C261.115 83.3186 264.164 82.7887 267.477 84.1133C268.14 84.3783 273.177 86.4977 273.575 90.604C273.707 92.7234 272.647 95.3726 271.321 95.5051Z" fill="#FFD1A2"/>
<path d="M249.451 166.505L213.531 165.18C213.531 161.869 213.664 158.425 213.664 155.113H227.051C231.69 159.749 235.534 161.339 238.317 161.869C239.643 162.134 242.029 162.398 245.077 163.856C247.065 164.65 248.523 165.71 249.451 166.505Z" fill="black"/>
<path d="M249.451 166.505V168.359H213.531V165.048L249.451 166.505Z" fill="#00FFFF"/>
<path d="M241.498 11.6567C242.161 13.2462 240.968 14.5709 241.896 18.2798C242.028 18.8096 242.293 19.7369 242.028 20.0018C241.498 20.2667 240.173 17.6175 238.847 17.8824C238.052 18.0149 237.522 19.3395 237.522 20.3992C237.522 22.3861 239.51 24.373 240.57 24.1081C241.631 23.8432 241.631 21.5913 242.293 21.5913C243.089 21.5913 242.558 25.3003 244.414 27.5521C247.33 30.8637 253.56 28.7443 254.62 31.526C254.753 31.9234 254.62 32.4532 254.488 33.3805C254.223 34.8376 253.825 37.6193 251.572 39.4737C249.981 40.7983 247.33 41.7256 244.944 40.7983C243.089 40.0036 242.161 38.414 241.1 36.0297C238.317 30.4663 239.775 28.082 237.124 25.1678C235.799 23.7107 233.413 22.1212 231.557 22.7835C230.099 23.1809 229.967 24.638 229.039 24.5055C227.448 24.373 226.255 19.4719 226.52 15.1007C226.653 12.7164 226.785 11.2593 227.846 9.93468C230.894 6.09328 240.173 8.08021 241.498 11.6567Z" fill="black"/>
<path d="M264.429 91.6637L268.67 95.9025" stroke="#0049A2" stroke-width="3" stroke-miterlimit="10"/>
<path d="M250.113 19.207H254.62" stroke="black" stroke-width="0.5" stroke-miterlimit="10"/>
<path d="M253.693 21.5912L251.041 22.2538L252.765 23.7114" stroke="black" stroke-width="0.5" stroke-miterlimit="10"/>
<path d="M196.035 186.374C202.989 186.374 208.627 180.74 208.627 173.79C208.627 166.84 202.989 161.206 196.035 161.206C189.081 161.206 183.443 166.84 183.443 173.79C183.443 180.74 189.081 186.374 196.035 186.374Z" fill="#0049A2"/>
<path d="M196.035 183.063C201.012 183.063 205.048 179.03 205.048 174.055C205.048 169.08 201.012 165.048 196.035 165.048C191.057 165.048 187.021 169.08 187.021 174.055C187.021 179.03 191.057 183.063 196.035 183.063Z" fill="#D3EDFF"/>
<path d="M193.649 170.611L195.24 176.175L199.879 172.995" stroke="black" stroke-width="2" stroke-miterlimit="10"/>
<path d="M132.94 165.121C132.97 161.756 130.266 159.003 126.898 158.972C123.531 158.941 120.776 161.644 120.745 165.009C120.714 168.375 123.419 171.128 126.787 171.158C130.154 171.189 132.909 168.486 132.94 165.121Z" fill="#0049A2"/>
<path d="M277.377 165.077C277.408 161.712 274.703 158.959 271.336 158.928C267.968 158.897 265.214 161.6 265.183 164.965C265.152 168.33 267.857 171.083 271.224 171.114C274.591 171.145 277.346 168.442 277.377 165.077Z" fill="#0049A2"/>
<path d="M51.1624 65.8336C36.1847 65.8336 24.123 77.8876 24.123 92.8559C24.123 107.824 51.1624 144.649 51.1624 144.649C51.1624 144.649 78.2018 107.824 78.2018 92.8559C78.0693 77.8876 66.0076 65.8336 51.1624 65.8336ZM51.1624 105.307C45.1979 105.307 40.2937 100.406 40.2937 94.4454C40.2937 88.4846 45.1979 83.5835 51.1624 83.5835C57.127 83.5835 62.0312 88.4846 62.0312 94.4454C62.0312 100.539 57.127 105.307 51.1624 105.307Z" fill="#0049A2"/>
<path d="M313.073 82.6563C305.651 82.6563 299.554 88.7496 299.554 96.1675C299.554 103.585 313.073 121.998 313.073 121.998C313.073 121.998 326.593 103.585 326.593 96.1675C326.461 88.6171 320.496 82.6563 313.073 82.6563ZM313.073 102.393C310.025 102.393 307.639 100.009 307.639 96.9622C307.639 93.9156 310.025 91.5313 313.073 91.5313C316.122 91.5313 318.508 93.9156 318.508 96.9622C318.508 99.8764 315.989 102.393 313.073 102.393Z" fill="#0049A2"/>
<path d="M209.319 41.5955L218.444 35.4233H227.568L231.593 49.1096L211.466 55.2818L209.319 41.5955Z" fill="white"/>
</g>
<defs>
<clipPath id="clip0">
<rect width="337.595" height="217.37" fill="white"/>
</clipPath>
</defs>
</svg>
