<svg width="116" height="21" viewBox="0 0 116 21" fill="none" xmlns="http://www.w3.org/2000/svg">
<path d="M72.1008 0.800781V20.8008H92.1008V0.800781H72.1008ZM82.2008 4.20078L83.9008 9.30078H89.3008L82.3008 14.4008L85.4008 13.8008L86.6008 17.6008L82.3008 14.5008L78.0008 17.6008L79.7008 12.5008L75.4008 9.40078H80.8008L82.2008 4.20078ZM95.9008 0.800781V20.8008H115.901V0.800781H95.9008ZM105.901 4.20078L107.601 9.30078H113.001L106.001 14.4008L109.101 13.8008L110.301 17.6008L106.001 14.5008L101.701 17.6008L103.401 12.5008L99.1008 9.40078H104.501L105.901 4.20078ZM48.3008 0.800781V20.8008H68.3008V0.800781H48.3008ZM58.4008 4.20078L60.1008 9.30078H65.5008L58.5008 14.4008L61.6008 13.8008L62.8008 17.6008L58.5008 14.5008L54.2008 17.6008L55.9008 12.5008L51.6008 9.40078H57.0008L58.4008 4.20078ZM24.6008 0.800781V20.8008H44.6008V0.800781H24.6008ZM34.6008 4.20078L36.3008 9.30078H41.7008L34.7008 14.4008L37.8008 13.8008L39.0008 17.6008L34.7008 14.5008L30.4008 17.6008L32.1008 12.5008L27.8008 9.40078H33.2008L34.6008 4.20078ZM0.800781 0.800781V20.8008H20.8008V0.800781H0.800781ZM10.9008 4.20078L12.6008 9.30078H18.0008L11.0008 14.4008L14.1008 13.8008L15.3008 17.6008L11.0008 14.5008L6.70078 17.6008L8.40078 12.5008L4.10078 9.40078H9.50078L10.9008 4.20078Z" fill="#0049A2"/>
</svg>
