<svg width="130" height="39" viewBox="0 0 130 39" fill="none" xmlns="http://www.w3.org/2000/svg">
<g clip-path="url(#clip0)">
<path d="M55.9837 18.3633L46.4224 26.552" stroke="white" stroke-miterlimit="10"/>
<path d="M55.9837 26.552L46.4224 18.3633" stroke="white" stroke-miterlimit="10"/>
<path d="M51.2031 28.7028V16.2129" stroke="white" stroke-miterlimit="10"/>
<path d="M95 18L85 27" stroke="white" stroke-miterlimit="10"/>
<path d="M95 27L85 18" stroke="white" stroke-miterlimit="10"/>
<path d="M90 29V16" stroke="white" stroke-miterlimit="10"/>
<path d="M55.6755 6.91282C55.0754 6.62065 54.363 6.98717 54.2518 7.64528L53.3118 13.2076C53.2365 13.6529 53.5422 14.0862 53.9712 14.2273C54.8278 14.5089 55.5326 14.8804 56.1113 15.3418C56.303 15.4947 56.4034 15.7316 56.4034 15.9769V18.4227C56.4034 18.7882 55.7258 19.0029 55.4389 18.7766C55.3131 18.6939 55.2292 18.5698 55.1034 18.4871C54.5163 18.0735 53.8453 17.7013 53.1324 17.4945C52.5034 17.2877 51.8324 17.1637 51.2034 17.1223C51.0776 17.1223 50.9518 17.1223 50.8679 17.1223C49.8615 17.1223 48.9808 17.3704 48.1841 17.8254C47.7228 18.0735 47.3034 18.4044 46.9679 18.7766C46.7163 19.0661 46.4647 19.3556 46.255 19.7278C45.7937 20.555 45.5421 21.4648 45.5421 22.4988C45.5421 23.5327 45.7937 24.4839 46.255 25.3111C46.4228 25.6006 46.6324 25.8901 46.8421 26.1382C47.2195 26.5518 47.6389 26.924 48.1421 27.2135C48.9389 27.6684 49.8615 27.8752 50.826 27.8752C50.9518 27.8752 51.0776 27.8752 51.1615 27.8752C51.8324 27.8339 52.5034 27.7098 53.1324 27.503C53.8873 27.2548 54.5163 26.924 55.1034 26.4691C55.2712 26.345 55.397 26.2623 55.5228 26.1382C55.7498 25.9391 56.3615 26.1288 56.3615 26.4308V29.0511C56.3615 29.2521 56.2867 29.4479 56.138 29.5831C55.5769 30.0932 54.8502 30.4796 53.9292 30.7702C52.9228 31.1011 51.7905 31.2665 50.5744 31.2665C48.8131 31.2665 47.2195 30.8943 45.8357 30.1499C44.4518 29.4054 43.3195 28.3715 42.5228 27.0481C41.726 25.7246 41.3066 24.1944 41.3066 22.4988C41.3066 20.7617 41.726 19.2315 42.5228 17.9081C43.3195 16.5846 44.4099 15.5507 45.8357 14.8063C46.59 14.4181 47.3957 14.1312 48.2326 13.9454C48.6518 13.8524 48.989 13.5288 49.0633 13.1059L50.4416 5.26351C50.52 4.81799 50.2894 4.37537 49.8795 4.18415L48.3925 3.49055C47.8861 3.25435 47.6715 2.64906 47.9161 2.14666L48.548 0.84822C48.7878 0.355521 49.3795 0.147572 49.8748 0.381894L58.3829 4.40676C58.8861 4.64478 59.098 5.24785 58.8545 5.74834L58.225 7.04169C57.9833 7.53832 57.3847 7.74494 56.8881 7.50316L55.6755 6.91282Z" fill="white"/>
<path d="M17.0677 17.7834C16.3129 16.5013 15.2645 15.4674 14.0065 14.7643C12.7484 14.0612 11.3645 13.7304 9.89677 13.7304C8.84839 13.7304 7.84194 13.9371 6.96129 14.3507C6.08065 14.7643 5.28387 15.3433 4.65484 16.0877C4.47473 16.3009 4.06774 16.1783 4.06774 15.8993V3.39844C4.06774 2.84615 3.62003 2.39844 3.06774 2.39844H1C0.447715 2.39844 0 2.84615 0 3.39844V29.9764C0 30.5287 0.447715 30.9764 1 30.9764H3.48074C3.80493 30.9764 4.06774 30.7136 4.06774 30.3894V29.2204C4.06774 28.9415 4.49126 28.8067 4.65484 29.0326C5.28387 29.777 6.08065 30.356 6.96129 30.7696C7.84194 31.1832 8.80645 31.39 9.89677 31.39C11.3645 31.39 12.7484 31.0591 14.0065 30.356C15.2645 29.6529 16.271 28.6604 17.0677 27.3369C17.8226 26.0135 18.2 24.4419 18.2 22.6222C18.2 20.6784 17.8226 19.1068 17.0677 17.7834ZM13.3355 25.3931C12.8742 26.1789 12.2452 26.7993 11.4903 27.2129C10.7355 27.6264 9.85484 27.8332 8.93226 27.8332C8.34516 27.8332 7.8 27.7091 7.2129 27.5024C6.62581 27.2542 6.12258 26.9234 5.61935 26.4684C5.15806 26.0135 4.78065 25.4345 4.4871 24.7728C4.19355 24.1111 4.06774 23.3253 4.06774 22.4981C4.06774 21.6296 4.19355 20.8852 4.4871 20.2235C4.78065 19.5617 5.15806 18.9827 5.61935 18.5278C6.08065 18.0729 6.62581 17.742 7.2129 17.4939C7.8 17.2457 8.3871 17.163 8.93226 17.163C9.85484 17.163 10.7355 17.3698 11.4903 17.7834C12.2452 18.197 12.8742 18.8173 13.3355 19.6031C13.7968 20.3889 14.0484 21.3401 14.0484 22.4981C14.0484 23.6561 13.7968 24.6073 13.3355 25.3931Z" fill="white"/>
<path d="M37.2465 14.1035C37.9715 14.1035 38.4555 14.8508 38.1591 15.5124L27.9004 38.4095C27.7392 38.7692 27.3819 39.0007 26.9878 39.0007H24.9023C24.1773 39.0007 23.6932 38.2532 23.9898 37.5916L27.659 29.4075C27.7773 29.1436 27.7756 28.8415 27.6543 28.579L21.6234 15.5229C21.3173 14.8602 21.8013 14.1035 22.5312 14.1035H24.8676C25.2735 14.1035 25.6392 14.3489 25.793 14.7246L29.096 22.7922C29.4357 23.6218 30.6112 23.6199 30.9482 22.7892L34.2178 14.7277C34.3709 14.3504 34.7374 14.1035 35.1445 14.1035H37.2465Z" fill="white"/>
<path d="M76.6263 14.1035C77.3507 14.1035 77.8347 14.8497 77.5395 15.5111L67.3193 38.4082C67.1585 38.7686 66.8008 39.0007 66.4062 39.0007H64.3217C63.5966 39.0007 63.1126 38.2532 63.4092 37.5916L67.0778 29.4087C67.1964 29.1442 67.1944 28.8411 67.0722 28.5782L61.0058 15.525C60.6978 14.8621 61.1817 14.1035 61.9127 14.1035H64.287C64.6929 14.1035 65.0586 14.3489 65.2124 14.7246L68.5154 22.7922C68.8551 23.6218 70.0306 23.6199 70.3675 22.7892L73.6372 14.7277C73.7903 14.3504 74.1568 14.1035 74.5639 14.1035H76.6263Z" fill="white"/>
<path d="M85.6321 25.3519C86.0934 26.179 86.7224 26.7994 87.5611 27.2543C88.3579 27.7093 89.2805 27.9161 90.245 27.9161C91.0418 27.9161 91.8385 27.792 92.5934 27.5438C93.3482 27.2957 93.9773 26.9648 94.5644 26.5099C94.9284 26.2278 95.8224 26.5382 95.8224 26.9987V29.0516C95.8224 29.2785 95.7383 29.4998 95.569 29.6509C95.0121 30.1477 94.2948 30.5256 93.3902 30.8111C92.3837 31.1419 91.2514 31.3074 90.0353 31.3074C88.274 31.3074 86.6805 30.9351 85.2966 30.1907C83.9127 29.4463 82.7805 28.4123 81.9837 27.0889C81.1869 25.7655 80.7676 24.2352 80.7676 22.5396C80.7676 20.8026 81.1869 19.2724 81.9837 17.9489C82.7805 16.6255 83.8708 15.5916 85.2966 14.8471C86.6805 14.1027 88.274 13.7305 90.0353 13.7305C91.2514 13.7305 92.3418 13.8959 93.3902 14.2268C94.2348 14.5044 94.9317 14.8695 95.5058 15.3219C95.7141 15.486 95.8224 15.7424 95.8224 16.0076V17.9785C95.8224 18.4807 94.933 18.7758 94.5224 18.4866C93.9353 18.073 93.2644 17.7421 92.5514 17.494C91.7966 17.2458 91.0418 17.1218 90.245 17.1218C89.2385 17.1218 88.3579 17.3699 87.5611 17.8248C86.7644 18.2798 86.1353 18.9415 85.6321 19.7273C85.1708 20.5131 84.9192 21.4643 84.9192 22.4982C84.9611 23.5735 85.1708 24.5247 85.6321 25.3519Z" fill="white"/>
<path d="M105.474 2.39844C106.026 2.39844 106.474 2.84615 106.474 3.39844V29.9764C106.474 30.5287 106.026 30.9764 105.474 30.9764H103.448C102.896 30.9764 102.448 30.5287 102.448 29.9764V3.39844C102.448 2.84615 102.896 2.39844 103.448 2.39844H105.474Z" fill="white"/>
<path d="M128.993 17.7008C128.322 16.4187 127.358 15.4261 126.058 14.7644C124.8 14.0613 123.248 13.7305 121.445 13.7305C120.061 13.7305 118.845 13.9373 117.755 14.3508C116.664 14.7644 115.742 15.3434 114.945 16.1292C114.148 16.915 113.561 17.8249 113.142 18.9001C112.722 19.9754 112.513 21.1748 112.513 22.4982C112.513 24.2766 112.89 25.8068 113.603 27.1303C114.316 28.4537 115.322 29.4876 116.664 30.1907C117.964 30.9351 119.516 31.3074 121.277 31.3074C123.248 31.3074 124.968 30.9351 126.393 30.1494C127.499 29.54 128.453 28.7318 129.237 27.6861C129.603 27.1969 129.362 26.5161 128.793 26.293L127.181 25.6608C126.726 25.4825 126.217 25.6659 125.913 26.0482C125.466 26.6106 124.946 27.0488 124.339 27.3784C123.542 27.8333 122.577 28.0401 121.487 28.0401C120.439 28.0401 119.558 27.792 118.845 27.3784C118.132 26.9235 117.587 26.2618 117.209 25.4346C117.089 25.1584 116.988 24.8633 116.907 24.5494C116.756 23.9721 117.229 23.4495 117.825 23.4495H129.584C129.814 23.4495 129.992 23.2764 130.031 23.05C130.036 23.0227 130.042 22.9805 130.042 22.9528C130.042 22.7599 130.042 22.567 130.042 22.3742C130 20.5544 129.664 18.9829 128.993 17.7008ZM116.958 19.9754C117.168 19.2724 117.503 18.6934 117.922 18.1971C118.342 17.7008 118.845 17.3699 119.39 17.1218C119.977 16.8736 120.648 16.7496 121.403 16.7496C122.242 16.7496 122.997 16.915 123.626 17.2872C124.255 17.6594 124.758 18.1557 125.093 18.8174C125.232 19.071 125.342 19.3429 125.425 19.6332C125.582 20.187 125.111 20.6785 124.535 20.6785H117.482C117.122 20.6785 116.822 20.3095 116.958 19.9754Z" fill="white"/>
</g>
<defs>
<clipPath id="clip0">
<rect width="130" height="39" fill="white"/>
</clipPath>
</defs>
</svg>
