<svg width="225" height="226" viewBox="0 0 225 226" fill="none" xmlns="http://www.w3.org/2000/svg">
<g clip-path="url(#clip0)">
<path d="M129.205 7.03761C105.191 -2.34647 66.821 -4.95316 43.0681 17.4644C41.763 18.7677 24.7966 35.4505 24.0135 59.4321C23.4915 86.0203 43.5901 95.6651 37.5866 115.997C33.9323 127.988 26.6237 125.903 14.3558 145.192C6.78615 157.183 -3.13264 173.084 1.0437 191.852C1.30472 193.416 6.52514 214.791 25.5797 223.393C42.546 230.952 52.9869 220.265 85.3534 219.222C110.15 218.44 114.327 224.175 135.991 224.957C158.961 225.739 194.46 226.26 212.993 205.146C232.047 183.25 225.261 147.278 215.342 126.945C204.64 105.049 190.806 102.964 180.626 75.0722C174.362 58.1287 177.494 53.4367 170.185 40.6639C157.656 18.7677 135.208 9.38363 129.205 7.03761Z" fill="#D3EDFF"/>
<path d="M110.629 73.6966L105.681 74.1523L106.137 79.0938L111.085 78.638L110.629 73.6966Z" fill="#000C73"/>
<path d="M120.562 72.72L115.614 73.1758L116.071 78.1172L121.019 77.6615L120.562 72.72Z" fill="#000C73"/>
<path d="M121.05 77.6809L116.102 78.1367L116.558 83.0782L121.506 82.6224L121.05 77.6809Z" fill="#000C73"/>
<path d="M101.424 84.6145L96.4756 85.0703L96.932 90.0118L101.88 89.556L101.424 84.6145Z" fill="#000C73"/>
<path d="M111.38 83.886L106.432 84.3418L106.888 89.2833L111.836 88.8275L111.38 83.886Z" fill="#000C73"/>
<path d="M122.049 87.8489L117.101 88.3047L117.557 93.2461L122.505 92.7904L122.049 87.8489Z" fill="#000C73"/>
<path d="M107.39 94.2942L102.441 94.75L102.898 99.6915L107.846 99.2357L107.39 94.2942Z" fill="#000C73"/>
<path d="M117.323 93.3196L112.375 93.7754L112.831 98.7168L117.78 98.2611L117.323 93.3196Z" fill="#000C73"/>
<path d="M122.56 93.0559L117.612 93.5117L118.069 98.4532L123.017 97.9974L122.56 93.0559Z" fill="#000C73"/>
<path d="M107.9 99.5013L102.952 99.957L103.409 104.898L108.357 104.443L107.9 99.5013Z" fill="#000C73"/>
<path d="M112.867 99.013L107.919 99.4688L108.375 104.41L113.323 103.954L112.867 99.013Z" fill="#000C73"/>
<path d="M117.834 98.5247L112.886 98.9805L113.342 103.922L118.29 103.466L117.834 98.5247Z" fill="#000C73"/>
<path d="M103.175 104.97L98.2266 105.426L98.683 110.367L103.631 109.911L103.175 104.97Z" fill="#000C73"/>
<path d="M113.355 103.974L108.407 104.43L108.864 109.371L113.812 108.915L113.355 103.974Z" fill="#000C73"/>
<path d="M123.536 102.976L118.588 103.432L119.044 108.373L123.992 107.917L123.536 102.976Z" fill="#000C73"/>
<path d="M103.662 109.931L98.7139 110.387L99.1703 115.328L104.118 114.872L103.662 109.931Z" fill="#000C73"/>
<path d="M113.844 108.933L108.896 109.389L109.352 114.33L114.3 113.874L113.844 108.933Z" fill="#000C73"/>
<path d="M63.6737 118.859L58.7256 119.314L59.182 124.256L64.1301 123.8L63.6737 118.859Z" fill="#000C73"/>
<path d="M68.6405 118.372L63.6924 118.828L64.1488 123.77L69.0969 123.314L68.6405 118.372Z" fill="#000C73"/>
<path d="M73.8553 117.861L68.9072 118.316L69.3636 123.258L74.3117 122.802L73.8553 117.861Z" fill="#000C73"/>
<path d="M83.7889 116.886L78.8408 117.342L79.2972 122.283L84.2453 121.827L83.7889 116.886Z" fill="#000C73"/>
<path d="M89.0028 116.376L84.0547 116.832L84.5111 121.773L89.4592 121.318L89.0028 116.376Z" fill="#000C73"/>
<path d="M93.9696 115.888L89.0215 116.344L89.4779 121.285L94.426 120.829L93.9696 115.888Z" fill="#000C73"/>
<path d="M98.9364 115.402L93.9883 115.857L94.4447 120.799L99.3928 120.343L98.9364 115.402Z" fill="#000C73"/>
<path d="M104.174 115.138L99.2256 115.594L99.682 120.535L104.63 120.079L104.174 115.138Z" fill="#000C73"/>
<path d="M114.354 114.14L109.406 114.596L109.863 119.537L114.811 119.081L114.354 114.14Z" fill="#000C73"/>
<path d="M124.288 113.165L119.34 113.621L119.796 118.563L124.744 118.107L124.288 113.165Z" fill="#000C73"/>
<path d="M129.502 112.656L124.554 113.111L125.01 118.053L129.958 117.597L129.502 112.656Z" fill="#000C73"/>
<path d="M134.469 112.167L129.521 112.623L129.977 117.564L134.925 117.109L134.469 112.167Z" fill="#000C73"/>
<path d="M154.853 110.419L149.905 110.875L150.362 115.816L155.31 115.361L154.853 110.419Z" fill="#000C73"/>
<path d="M64.162 123.82L59.2139 124.275L59.6703 129.217L64.6184 128.761L64.162 123.82Z" fill="#000C73"/>
<path d="M74.0956 122.845L69.1475 123.301L69.6038 128.242L74.552 127.786L74.0956 122.845Z" fill="#000C73"/>
<path d="M89.5135 121.583L84.5654 122.039L85.0218 126.981L89.9699 126.525L89.5135 121.583Z" fill="#000C73"/>
<path d="M104.661 120.099L99.7129 120.555L100.169 125.496L105.117 125.04L104.661 120.099Z" fill="#000C73"/>
<path d="M114.843 119.101L109.895 119.557L110.351 124.498L115.299 124.042L114.843 119.101Z" fill="#000C73"/>
<path d="M119.809 118.613L114.861 119.068L115.318 124.01L120.266 123.554L119.809 118.613Z" fill="#000C73"/>
<path d="M130.013 117.863L125.064 118.318L125.521 123.26L130.469 122.804L130.013 117.863Z" fill="#000C73"/>
<path d="M139.946 116.888L134.998 117.344L135.454 122.285L140.403 121.829L139.946 116.888Z" fill="#000C73"/>
<path d="M150.128 115.89L145.18 116.346L145.636 121.287L150.584 120.831L150.128 115.89Z" fill="#000C73"/>
<path d="M160.308 114.892L155.36 115.348L155.817 120.289L160.765 119.833L160.308 114.892Z" fill="#000C73"/>
<path d="M74.6063 128.052L69.6582 128.508L70.1146 133.449L75.0627 132.993L74.6063 128.052Z" fill="#000C73"/>
<path d="M84.788 127.054L79.8398 127.51L80.2962 132.451L85.2444 131.995L84.788 127.054Z" fill="#000C73"/>
<path d="M94.9686 126.056L90.0205 126.512L90.4769 131.453L95.425 130.997L94.9686 126.056Z" fill="#000C73"/>
<path d="M120.32 123.82L115.372 124.275L115.828 129.217L120.777 128.761L120.32 123.82Z" fill="#000C73"/>
<path d="M130.501 122.824L125.553 123.279L126.009 128.221L130.957 127.765L130.501 122.824Z" fill="#000C73"/>
<path d="M135.468 122.335L130.52 122.791L130.976 127.732L135.924 127.277L135.468 122.335Z" fill="#000C73"/>
<path d="M140.434 121.847L135.486 122.303L135.943 127.244L140.891 126.788L140.434 121.847Z" fill="#000C73"/>
<path d="M150.615 120.851L145.667 121.307L146.123 126.248L151.072 125.792L150.615 120.851Z" fill="#000C73"/>
<path d="M155.605 120.611L150.657 121.066L151.114 126.008L156.062 125.552L155.605 120.611Z" fill="#000C73"/>
<path d="M160.819 120.099L155.871 120.555L156.327 125.496L161.276 125.04L160.819 120.099Z" fill="#000C73"/>
<path d="M70.1278 133.499L65.1797 133.955L65.6361 138.897L70.5842 138.441L70.1278 133.499Z" fill="#000C73"/>
<path d="M85.2753 132.013L80.3271 132.469L80.7835 137.41L85.7317 136.954L85.2753 132.013Z" fill="#000C73"/>
<path d="M90.243 131.527L85.2949 131.982L85.7513 136.924L90.6994 136.468L90.243 131.527Z" fill="#000C73"/>
<path d="M100.446 130.777L95.498 131.232L95.9544 136.174L100.903 135.718L100.446 130.777Z" fill="#000C73"/>
<path d="M110.627 129.779L105.679 130.234L106.135 135.176L111.083 134.72L110.627 129.779Z" fill="#000C73"/>
<path d="M115.594 129.29L110.646 129.746L111.102 134.688L116.05 134.232L115.594 129.29Z" fill="#000C73"/>
<path d="M120.808 128.781L115.86 129.236L116.317 134.178L121.265 133.722L120.808 128.781Z" fill="#000C73"/>
<path d="M125.775 128.292L120.827 128.748L121.284 133.69L126.232 133.234L125.775 128.292Z" fill="#000C73"/>
<path d="M130.742 127.806L125.794 128.262L126.25 133.203L131.198 132.747L130.742 127.806Z" fill="#000C73"/>
<path d="M140.945 127.056L135.997 127.512L136.453 132.453L141.402 131.997L140.945 127.056Z" fill="#000C73"/>
<path d="M146.16 126.544L141.212 127L141.668 131.941L146.616 131.486L146.16 126.544Z" fill="#000C73"/>
<path d="M151.127 126.058L146.179 126.514L146.635 131.455L151.583 130.999L151.127 126.058Z" fill="#000C73"/>
<path d="M161.307 125.06L156.359 125.516L156.816 130.457L161.764 130.001L161.307 125.06Z" fill="#000C73"/>
<path d="M166.274 124.572L161.326 125.027L161.783 129.969L166.731 129.513L166.274 124.572Z" fill="#000C73"/>
<path d="M65.4022 138.97L60.4541 139.426L60.9105 144.367L65.8586 143.911L65.4022 138.97Z" fill="#000C73"/>
<path d="M70.6161 138.458L65.668 138.914L66.1244 143.856L71.0725 143.4L70.6161 138.458Z" fill="#000C73"/>
<path d="M80.5721 137.732L75.624 138.188L76.0804 143.129L81.0285 142.673L80.5721 137.732Z" fill="#000C73"/>
<path d="M85.787 137.22L80.8389 137.676L81.2953 142.617L86.2434 142.161L85.787 137.22Z" fill="#000C73"/>
<path d="M90.7538 136.734L85.8057 137.189L86.2621 142.131L91.2102 141.675L90.7538 136.734Z" fill="#000C73"/>
<path d="M95.9676 136.224L91.0195 136.68L91.4759 141.621L96.424 141.165L95.9676 136.224Z" fill="#000C73"/>
<path d="M100.934 135.736L95.9863 136.191L96.4427 141.133L101.391 140.677L100.934 135.736Z" fill="#000C73"/>
<path d="M111.115 134.738L106.167 135.193L106.623 140.135L111.571 139.679L111.115 134.738Z" fill="#000C73"/>
<path d="M116.082 134.251L111.134 134.707L111.59 139.648L116.538 139.193L116.082 134.251Z" fill="#000C73"/>
<path d="M121.297 133.741L116.349 134.197L116.805 139.139L121.753 138.683L121.297 133.741Z" fill="#000C73"/>
<path d="M131.253 133.013L126.305 133.469L126.761 138.41L131.709 137.954L131.253 133.013Z" fill="#000C73"/>
<path d="M136.467 132.503L131.519 132.959L131.975 137.9L136.923 137.445L136.467 132.503Z" fill="#000C73"/>
<path d="M141.433 132.015L136.485 132.471L136.942 137.412L141.89 136.956L141.433 132.015Z" fill="#000C73"/>
<path d="M151.615 131.017L146.667 131.473L147.123 136.414L152.071 135.958L151.615 131.017Z" fill="#000C73"/>
<path d="M156.581 130.531L151.633 130.986L152.089 135.928L157.037 135.472L156.581 130.531Z" fill="#000C73"/>
<path d="M161.796 130.019L156.848 130.475L157.304 135.416L162.252 134.96L161.796 130.019Z" fill="#000C73"/>
<path d="M106.412 140.456L101.464 140.912L101.92 145.854L106.868 145.398L106.412 140.456Z" fill="#000C73"/>
<path d="M111.626 139.945L106.678 140.4L107.134 145.342L112.082 144.886L111.626 139.945Z" fill="#000C73"/>
<path d="M116.593 139.458L111.645 139.914L112.101 144.855L117.049 144.4L116.593 139.458Z" fill="#000C73"/>
<path d="M136.955 137.462L132.007 137.918L132.463 142.859L137.411 142.404L136.955 137.462Z" fill="#000C73"/>
<path d="M157.093 135.738L152.145 136.193L152.601 141.135L157.549 140.679L157.093 135.738Z" fill="#000C73"/>
<path d="M162.059 135.249L157.111 135.705L157.568 140.647L162.516 140.191L162.059 135.249Z" fill="#000C73"/>
<path d="M106.9 145.415L101.952 145.871L102.409 150.813L107.357 150.357L106.9 145.415Z" fill="#000C73"/>
<path d="M127.263 143.419L122.314 143.875L122.771 148.816L127.719 148.361L127.263 143.419Z" fill="#000C73"/>
<path d="M147.399 141.695L142.451 142.15L142.908 147.092L147.856 146.636L147.399 141.695Z" fill="#000C73"/>
<path d="M167.762 139.699L162.813 140.154L163.27 145.096L168.218 144.64L167.762 139.699Z" fill="#000C73"/>
<path d="M107.389 150.376L102.44 150.832L102.897 155.773L107.845 155.318L107.389 150.376Z" fill="#000C73"/>
<path d="M112.355 149.888L107.407 150.344L107.864 155.285L112.812 154.829L112.355 149.888Z" fill="#000C73"/>
<path d="M117.592 149.624L112.644 150.08L113.1 155.022L118.048 154.566L117.592 149.624Z" fill="#000C73"/>
<path d="M137.707 147.652L132.759 148.107L133.215 153.049L138.163 152.593L137.707 147.652Z" fill="#000C73"/>
<path d="M158.068 145.658L153.12 146.113L153.577 151.055L158.525 150.599L158.068 145.658Z" fill="#000C73"/>
<path d="M163.058 145.417L158.11 145.873L158.567 150.814L163.515 150.359L163.058 145.417Z" fill="#000C73"/>
<path d="M107.899 155.583L102.951 156.039L103.408 160.981L108.356 160.525L107.899 155.583Z" fill="#000C73"/>
<path d="M128.014 153.611L123.065 154.066L123.522 159.008L128.47 158.552L128.014 153.611Z" fill="#000C73"/>
<path d="M138.195 152.613L133.247 153.068L133.703 158.01L138.652 157.554L138.195 152.613Z" fill="#000C73"/>
<path d="M148.398 151.863L143.45 152.318L143.907 157.26L148.855 156.804L148.398 151.863Z" fill="#000C73"/>
<path d="M158.58 150.865L153.632 151.32L154.088 156.262L159.036 155.806L158.58 150.865Z" fill="#000C73"/>
<path d="M168.513 149.89L163.564 150.346L164.021 155.287L168.969 154.831L168.513 149.89Z" fill="#000C73"/>
<path d="M113.354 160.056L108.406 160.512L108.863 165.453L113.811 164.997L113.354 160.056Z" fill="#000C73"/>
<path d="M133.739 158.308L128.791 158.764L129.247 163.705L134.196 163.249L133.739 158.308Z" fill="#000C73"/>
<path d="M143.672 157.333L138.724 157.789L139.18 162.731L144.128 162.275L143.672 157.333Z" fill="#000C73"/>
<path d="M164.035 155.337L159.087 155.793L159.543 160.734L164.491 160.279L164.035 155.337Z" fill="#000C73"/>
<path d="M108.876 165.503L103.928 165.959L104.384 170.9L109.332 170.445L108.876 165.503Z" fill="#000C73"/>
<path d="M118.832 164.775L113.884 165.23L114.34 170.172L119.288 169.716L118.832 164.775Z" fill="#000C73"/>
<path d="M124.046 164.265L119.098 164.721L119.554 169.662L124.502 169.206L124.046 164.265Z" fill="#000C73"/>
<path d="M134.227 163.267L129.279 163.723L129.736 168.664L134.684 168.208L134.227 163.267Z" fill="#000C73"/>
<path d="M139.194 162.781L134.246 163.236L134.702 168.178L139.651 167.722L139.194 162.781Z" fill="#000C73"/>
<path d="M144.16 162.292L139.212 162.748L139.668 167.69L144.616 167.234L144.16 162.292Z" fill="#000C73"/>
<path d="M154.342 161.294L149.394 161.75L149.85 166.691L154.798 166.236L154.342 161.294Z" fill="#000C73"/>
<path d="M159.331 161.054L154.383 161.51L154.839 166.451L159.787 165.995L159.331 161.054Z" fill="#000C73"/>
<path d="M169.512 160.056L164.563 160.512L165.02 165.453L169.968 164.997L169.512 160.056Z" fill="#000C73"/>
<path d="M109.387 170.71L104.438 171.166L104.895 176.107L109.843 175.652L109.387 170.71Z" fill="#000C73"/>
<path d="M114.353 170.222L109.405 170.678L109.862 175.619L114.81 175.163L114.353 170.222Z" fill="#000C73"/>
<path d="M124.534 169.226L119.586 169.682L120.042 174.623L124.99 174.167L124.534 169.226Z" fill="#000C73"/>
<path d="M134.468 168.249L129.52 168.705L129.976 173.647L134.924 173.191L134.468 168.249Z" fill="#000C73"/>
<path d="M149.886 166.99L144.938 167.445L145.394 172.387L150.342 171.931L149.886 166.99Z" fill="#000C73"/>
<path d="M154.852 166.501L149.904 166.957L150.361 171.898L155.309 171.443L154.852 166.501Z" fill="#000C73"/>
<path d="M165.033 165.505L160.085 165.961L160.541 170.902L165.489 170.447L165.033 165.505Z" fill="#000C73"/>
<path d="M109.627 175.693L104.679 176.148L105.135 181.09L110.083 180.634L109.627 175.693Z" fill="#000C73"/>
<path d="M114.842 175.183L109.894 175.639L110.35 180.58L115.298 180.124L114.842 175.183Z" fill="#000C73"/>
<path d="M125.045 174.433L120.097 174.889L120.553 179.83L125.501 179.374L125.045 174.433Z" fill="#000C73"/>
<path d="M134.978 173.458L130.03 173.914L130.487 178.856L135.435 178.4L134.978 173.458Z" fill="#000C73"/>
<path d="M140.193 172.947L135.245 173.402L135.702 178.344L140.65 177.888L140.193 172.947Z" fill="#000C73"/>
<path d="M145.16 172.46L140.212 172.916L140.668 177.857L145.616 177.402L145.16 172.46Z" fill="#000C73"/>
<path d="M155.341 171.462L150.393 171.918L150.849 176.859L155.797 176.404L155.341 171.462Z" fill="#000C73"/>
<path d="M160.307 170.974L155.359 171.43L155.816 176.371L160.764 175.915L160.307 170.974Z" fill="#000C73"/>
<path d="M165.521 170.464L160.573 170.92L161.03 175.861L165.978 175.406L165.521 170.464Z" fill="#000C73"/>
<path d="M170.512 170.224L165.563 170.68L166.02 175.621L170.968 175.165L170.512 170.224Z" fill="#000C73"/>
<path d="M59.9481 78.4153L55 78.8711L55.4564 83.8125L60.4045 83.3568L59.9481 78.4153Z" fill="#000C73"/>
<path d="M64.9149 77.927L59.9668 78.3828L60.4232 83.3242L65.3713 82.8685L64.9149 77.927Z" fill="#000C73"/>
<path d="M70.1288 77.4173L65.1807 77.873L65.6371 82.8145L70.5852 82.3587L70.1288 77.4173Z" fill="#000C73"/>
<path d="M75.0956 76.929L70.1475 77.3848L70.6038 82.3262L75.552 81.8704L75.0956 76.929Z" fill="#000C73"/>
<path d="M80.0624 76.4427L75.1143 76.8984L75.5706 81.8399L80.5188 81.3841L80.0624 76.4427Z" fill="#000C73"/>
<path d="M85.2772 75.9309L80.3291 76.3867L80.7855 81.3282L85.7336 80.8724L85.2772 75.9309Z" fill="#000C73"/>
<path d="M90.244 75.4446L85.2959 75.9004L85.7523 80.8418L90.7004 80.3861L90.244 75.4446Z" fill="#000C73"/>
<path d="M130.743 71.7239L125.795 72.1797L126.251 77.1211L131.199 76.6654L130.743 71.7239Z" fill="#000C73"/>
<path d="M135.71 71.2356L130.762 71.6914L131.218 76.6329L136.166 76.1771L135.71 71.2356Z" fill="#000C73"/>
<path d="M140.946 70.972L135.998 71.4277L136.454 76.3692L141.403 75.9134L140.946 70.972Z" fill="#000C73"/>
<path d="M145.914 70.4856L140.966 70.9414L141.422 75.8829L146.37 75.4271L145.914 70.4856Z" fill="#000C73"/>
<path d="M151.128 69.9759L146.18 70.4316L146.636 75.3731L151.584 74.9173L151.128 69.9759Z" fill="#000C73"/>
<path d="M156.095 69.4876L151.146 69.9434L151.603 74.8848L156.551 74.429L156.095 69.4876Z" fill="#000C73"/>
<path d="M161.061 68.9993L156.113 69.4551L156.57 74.3965L161.518 73.9407L161.061 68.9993Z" fill="#000C73"/>
<path d="M60.4364 83.3743L55.4883 83.8301L55.9447 88.7715L60.8928 88.3158L60.4364 83.3743Z" fill="#000C73"/>
<path d="M90.7548 80.6516L85.8066 81.1074L86.263 86.0489L91.2111 85.5931L90.7548 80.6516Z" fill="#000C73"/>
<path d="M131.254 76.9309L126.306 77.3867L126.762 82.3282L131.71 81.8724L131.254 76.9309Z" fill="#000C73"/>
<path d="M161.55 73.9602L156.602 74.416L157.058 79.3575L162.006 78.9017L161.55 73.9602Z" fill="#000C73"/>
<path d="M60.9247 88.3352L55.9766 88.791L56.433 93.7325L61.3811 93.2767L60.9247 88.3352Z" fill="#000C73"/>
<path d="M70.8807 87.6067L65.9326 88.0625L66.389 93.0039L71.3371 92.5482L70.8807 87.6067Z" fill="#000C73"/>
<path d="M76.0946 87.097L71.1465 87.5527L71.6029 92.4942L76.551 92.0384L76.0946 87.097Z" fill="#000C73"/>
<path d="M81.0614 86.6087L76.1133 87.0645L76.5697 92.0059L81.5178 91.5501L81.0614 86.6087Z" fill="#000C73"/>
<path d="M91.243 85.6106L86.2949 86.0664L86.7513 91.0079L91.6994 90.5521L91.243 85.6106Z" fill="#000C73"/>
<path d="M131.742 81.8899L126.794 82.3457L127.25 87.2872L132.198 86.8314L131.742 81.8899Z" fill="#000C73"/>
<path d="M141.923 80.8919L136.975 81.3477L137.431 86.2891L142.379 85.8333L141.923 80.8919Z" fill="#000C73"/>
<path d="M146.89 80.4056L141.941 80.8613L142.398 85.8028L147.346 85.347L146.89 80.4056Z" fill="#000C73"/>
<path d="M151.88 80.1653L146.932 80.6211L147.388 85.5625L152.336 85.1068L151.88 80.1653Z" fill="#000C73"/>
<path d="M162.06 79.1673L157.112 79.623L157.569 84.5645L162.517 84.1087L162.06 79.1673Z" fill="#000C73"/>
<path d="M61.1874 93.5638L56.2393 94.0195L56.6956 98.961L61.6438 98.5052L61.1874 93.5638Z" fill="#000C73"/>
<path d="M71.369 92.5677L66.4209 93.0234L66.8773 97.9649L71.8254 97.5091L71.369 92.5677Z" fill="#000C73"/>
<path d="M76.5829 92.0559L71.6348 92.5117L72.0912 97.4532L77.0393 96.9974L76.5829 92.0559Z" fill="#000C73"/>
<path d="M81.5497 91.5696L76.6016 92.0254L77.058 96.9668L82.0061 96.5111L81.5497 91.5696Z" fill="#000C73"/>
<path d="M91.7304 90.5716L86.7822 91.0273L87.2386 95.9688L92.1867 95.513L91.7304 90.5716Z" fill="#000C73"/>
<path d="M132.23 86.8509L127.282 87.3066L127.739 92.2481L132.687 91.7923L132.23 86.8509Z" fill="#000C73"/>
<path d="M142.433 86.1009L137.485 86.5566L137.942 91.4981L142.89 91.0423L142.433 86.1009Z" fill="#000C73"/>
<path d="M147.4 85.6126L142.452 86.0684L142.909 91.0098L147.857 90.554L147.4 85.6126Z" fill="#000C73"/>
<path d="M152.367 85.1243L147.419 85.5801L147.875 90.5215L152.823 90.0658L152.367 85.1243Z" fill="#000C73"/>
<path d="M162.549 84.1282L157.601 84.584L158.057 89.5254L163.005 89.0697L162.549 84.1282Z" fill="#000C73"/>
<path d="M61.6757 98.5247L56.7275 98.9805L57.1839 103.922L62.132 103.466L61.6757 98.5247Z" fill="#000C73"/>
<path d="M71.8573 97.5266L66.9092 97.9824L67.3656 102.924L72.3137 102.468L71.8573 97.5266Z" fill="#000C73"/>
<path d="M76.8241 97.0403L71.876 97.4961L72.3324 102.438L77.2805 101.982L76.8241 97.0403Z" fill="#000C73"/>
<path d="M82.0604 96.7766L77.1123 97.2324L77.5687 102.174L82.5168 101.718L82.0604 96.7766Z" fill="#000C73"/>
<path d="M92.2421 95.7786L87.2939 96.2344L87.7503 101.176L92.6984 100.72L92.2421 95.7786Z" fill="#000C73"/>
<path d="M132.741 92.0579L127.793 92.5137L128.249 97.4551L133.197 96.9994L132.741 92.0579Z" fill="#000C73"/>
<path d="M142.675 91.0833L137.727 91.5391L138.183 96.4805L143.131 96.0247L142.675 91.0833Z" fill="#000C73"/>
<path d="M147.889 90.5735L142.94 91.0293L143.397 95.9708L148.345 95.515L147.889 90.5735Z" fill="#000C73"/>
<path d="M152.855 90.0852L147.907 90.541L148.364 95.4825L153.312 95.0267L152.855 90.0852Z" fill="#000C73"/>
<path d="M163.059 89.3352L158.111 89.791L158.568 94.7325L163.516 94.2767L163.059 89.3352Z" fill="#000C73"/>
<path d="M62.1639 103.486L57.2158 103.941L57.6722 108.883L62.6203 108.427L62.1639 103.486Z" fill="#000C73"/>
<path d="M92.4823 100.761L87.5342 101.217L87.9906 106.158L92.9387 105.702L92.4823 100.761Z" fill="#000C73"/>
<path d="M133.229 97.0188L128.281 97.4746L128.738 102.416L133.686 101.96L133.229 97.0188Z" fill="#000C73"/>
<path d="M163.548 94.2942L158.6 94.75L159.056 99.6915L164.004 99.2357L163.548 94.2942Z" fill="#000C73"/>
<path d="M62.6747 108.693L57.7266 109.148L58.183 114.09L63.1311 113.634L62.6747 108.693Z" fill="#000C73"/>
<path d="M67.6415 108.204L62.6934 108.66L63.1497 113.602L68.0979 113.146L67.6415 108.204Z" fill="#000C73"/>
<path d="M72.8563 107.695L67.9082 108.15L68.3646 113.092L73.3127 112.636L72.8563 107.695Z" fill="#000C73"/>
<path d="M77.8231 107.206L72.875 107.662L73.3314 112.604L78.2795 112.148L77.8231 107.206Z" fill="#000C73"/>
<path d="M83.037 106.697L78.0889 107.152L78.5453 112.094L83.4934 111.638L83.037 106.697Z" fill="#000C73"/>
<path d="M88.0038 106.208L83.0557 106.664L83.5121 111.606L88.4602 111.15L88.0038 106.208Z" fill="#000C73"/>
<path d="M92.993 105.968L88.0449 106.424L88.5013 111.365L93.4494 110.91L92.993 105.968Z" fill="#000C73"/>
<path d="M133.493 102.247L128.545 102.703L129.001 107.645L133.949 107.189L133.493 102.247Z" fill="#000C73"/>
<path d="M138.707 101.738L133.759 102.193L134.215 107.135L139.163 106.679L138.707 101.738Z" fill="#000C73"/>
<path d="M143.674 101.249L138.726 101.705L139.182 106.647L144.13 106.191L143.674 101.249Z" fill="#000C73"/>
<path d="M148.888 100.74L143.939 101.195L144.396 106.137L149.344 105.681L148.888 100.74Z" fill="#000C73"/>
<path d="M153.854 100.253L148.906 100.709L149.363 105.65L154.311 105.195L153.854 100.253Z" fill="#000C73"/>
<path d="M158.821 99.7649L153.873 100.221L154.329 105.162L159.278 104.706L158.821 99.7649Z" fill="#000C73"/>
<path d="M164.036 99.2552L159.088 99.7109L159.544 104.652L164.492 104.197L164.036 99.2552Z" fill="#000C73"/>
<path d="M110.116 124.572L105.168 125.027L105.624 129.969L110.572 129.513L110.116 124.572Z" fill="#000C73"/>
<path d="M66.4012 149.136L61.4531 149.592L61.9095 154.533L66.8576 154.077L66.4012 149.136Z" fill="#000C73"/>
<path d="M71.368 148.65L66.4199 149.105L66.8763 154.047L71.8244 153.591L71.368 148.65Z" fill="#000C73"/>
<path d="M76.5819 148.138L71.6338 148.594L72.0902 153.535L77.0383 153.079L76.5819 148.138Z" fill="#000C73"/>
<path d="M81.5487 147.652L76.6006 148.107L77.057 153.049L82.0051 152.593L81.5487 147.652Z" fill="#000C73"/>
<path d="M86.7626 147.142L81.8145 147.598L82.2708 152.539L87.219 152.083L86.7626 147.142Z" fill="#000C73"/>
<path d="M91.7528 146.902L86.8047 147.357L87.2611 152.299L92.2092 151.843L91.7528 146.902Z" fill="#000C73"/>
<path d="M96.7196 146.413L91.7715 146.869L92.2279 151.811L97.176 151.355L96.7196 146.413Z" fill="#000C73"/>
<path d="M66.8886 154.097L61.9404 154.553L62.3968 159.494L67.3449 159.038L66.8886 154.097Z" fill="#000C73"/>
<path d="M97.2069 151.374L92.2588 151.83L92.7152 156.772L97.6633 156.316L97.2069 151.374Z" fill="#000C73"/>
<path d="M67.4003 159.304L62.4521 159.76L62.9085 164.701L67.8567 164.245L67.4003 159.304Z" fill="#000C73"/>
<path d="M77.5809 158.306L72.6328 158.762L73.0892 163.703L78.0373 163.247L77.5809 158.306Z" fill="#000C73"/>
<path d="M82.5477 157.818L77.5996 158.273L78.056 163.215L83.0041 162.759L82.5477 157.818Z" fill="#000C73"/>
<path d="M87.5145 157.331L82.5664 157.787L83.0228 162.729L87.9709 162.273L87.5145 157.331Z" fill="#000C73"/>
<path d="M97.6952 156.333L92.7471 156.789L93.2035 161.731L98.1516 161.275L97.6952 156.333Z" fill="#000C73"/>
<path d="M67.8876 164.263L62.9395 164.719L63.3958 169.66L68.344 169.204L67.8876 164.263Z" fill="#000C73"/>
<path d="M78.0692 163.265L73.1211 163.721L73.5775 168.662L78.5256 168.206L78.0692 163.265Z" fill="#000C73"/>
<path d="M83.036 162.779L78.0879 163.234L78.5443 168.176L83.4924 167.72L83.036 162.779Z" fill="#000C73"/>
<path d="M88.0253 162.538L83.0771 162.994L83.5335 167.936L88.4817 167.48L88.0253 162.538Z" fill="#000C73"/>
<path d="M98.2059 161.54L93.2578 161.996L93.7142 166.938L98.6623 166.482L98.2059 161.54Z" fill="#000C73"/>
<path d="M123.535 159.058L118.587 159.514L119.043 164.455L123.991 163.999L123.535 159.058Z" fill="#000C73"/>
<path d="M153.853 156.335L148.905 156.791L149.362 161.732L154.31 161.277L153.853 156.335Z" fill="#000C73"/>
<path d="M68.3758 169.224L63.4277 169.68L63.8841 174.621L68.8322 174.165L68.3758 169.224Z" fill="#000C73"/>
<path d="M78.3329 168.495L73.3848 168.951L73.8412 173.893L78.7893 173.437L78.3329 168.495Z" fill="#000C73"/>
<path d="M83.5468 167.986L78.5986 168.441L79.055 173.383L84.0031 172.927L83.5468 167.986Z" fill="#000C73"/>
<path d="M88.5135 167.497L83.5654 167.953L84.0218 172.895L88.9699 172.439L88.5135 167.497Z" fill="#000C73"/>
<path d="M98.6942 166.501L93.7461 166.957L94.2025 171.898L99.1506 171.443L98.6942 166.501Z" fill="#000C73"/>
<path d="M68.8876 174.431L63.9395 174.887L64.3958 179.828L69.344 179.372L68.8876 174.431Z" fill="#000C73"/>
<path d="M99.205 171.708L94.2568 172.164L94.7132 177.106L99.6613 176.65L99.205 171.708Z" fill="#000C73"/>
<path d="M129.501 168.738L124.553 169.193L125.009 174.135L129.957 173.679L129.501 168.738Z" fill="#000C73"/>
<path d="M144.672 167.499L139.724 167.955L140.18 172.897L145.128 172.441L144.672 167.499Z" fill="#000C73"/>
<path d="M69.1278 179.413L64.1797 179.869L64.6361 184.811L69.5842 184.355L69.1278 179.413Z" fill="#000C73"/>
<path d="M74.3417 178.904L69.3936 179.359L69.8499 184.301L74.7981 183.845L74.3417 178.904Z" fill="#000C73"/>
<path d="M79.3085 178.417L74.3604 178.873L74.8167 183.814L79.7649 183.359L79.3085 178.417Z" fill="#000C73"/>
<path d="M84.5458 178.154L79.5977 178.609L80.054 183.551L85.0022 183.095L84.5458 178.154Z" fill="#000C73"/>
<path d="M89.5126 177.665L84.5645 178.121L85.0208 183.063L89.969 182.607L89.5126 177.665Z" fill="#000C73"/>
<path d="M94.4794 177.179L89.5312 177.635L89.9876 182.576L94.9358 182.12L94.4794 177.179Z" fill="#000C73"/>
<path d="M99.6932 176.667L94.7451 177.123L95.2015 182.064L100.15 181.609L99.6932 176.667Z" fill="#000C73"/>
</g>
<defs>
<clipPath id="clip0">
<rect width="225" height="226" fill="white"/>
</clipPath>
</defs>
</svg>
