<svg width="258" height="304" viewBox="0 0 258 304" fill="none" xmlns="http://www.w3.org/2000/svg">
<path d="M38.2535 107.748C49.594 77.3397 43.4377 64.4002 57.0463 52.1077C72.923 37.5507 87.5036 49.5198 120.229 38.5212C156.842 25.9052 156.518 4.23149 182.44 0.673123C214.841 -3.53222 255.991 24.9347 257.935 52.7547C259.879 81.8685 217.757 91.5732 220.349 122.951C221.969 145.919 245.622 149.801 254.371 185.061C255.667 189.59 260.527 209.323 255.019 227.762C243.354 267.551 187.948 291.489 144.206 291.489C64.8226 291.812 -7.75643 216.116 0.667924 170.828C4.55609 149.477 23.6729 147.86 38.2535 107.748Z" fill="#D3EDFF"/>
<rect x="103.048" y="63" width="106.994" height="221.181" rx="16" transform="rotate(14.1441 103.048 63)" fill="#000C73"/>
<rect x="105.746" y="68.3945" width="99.3969" height="212.405" rx="12" transform="rotate(14.1441 105.746 68.3945)" fill="#0049A2"/>
<path d="M108.334 146.436H148.113C156.39 146.436 163.288 153.322 163.288 161.587V201.301C163.288 209.565 156.39 216.452 148.113 216.452H108.334C100.056 216.452 93.1577 209.565 93.1577 201.301V161.587C93.1577 153.322 99.8259 146.436 108.334 146.436Z" fill="white"/>
<path d="M122.709 195.017C123.333 196.14 124.255 197.071 125.374 197.707C126.518 198.349 127.813 198.679 129.126 198.663C130.234 198.668 131.335 198.492 132.387 198.144C133.377 197.822 134.304 197.333 135.128 196.697C135.862 196.15 136.461 195.444 136.881 194.632V200.781C135.941 201.709 134.787 202.393 133.521 202.771C132.009 203.249 130.431 203.483 128.845 203.465C126.546 203.502 124.275 202.961 122.241 201.89C120.332 200.875 118.738 199.355 117.636 197.496C116.497 195.551 115.914 193.331 115.953 191.078C115.905 188.811 116.487 186.575 117.636 184.619C118.744 182.771 120.336 181.26 122.241 180.249C124.275 179.178 126.546 178.637 128.845 178.674C130.433 178.654 132.013 178.898 133.521 179.397C134.767 179.783 135.914 180.436 136.881 181.311V187.502C136.469 186.667 135.857 185.947 135.099 185.407C134.257 184.789 133.322 184.308 132.328 183.983C131.294 183.64 130.21 183.467 129.12 183.47C127.804 183.453 126.507 183.792 125.368 184.45C124.256 185.094 123.336 186.023 122.703 187.14C122.03 188.338 121.689 189.693 121.715 191.067C121.694 192.447 122.037 193.81 122.709 195.017Z" fill="#2484DC"/>
<path d="M136.267 185.186L122.954 196.709" stroke="#2484DC" stroke-width="2" stroke-miterlimit="10"/>
<path d="M136.267 196.709L122.954 185.186" stroke="#2484DC" stroke-width="2" stroke-miterlimit="10"/>
<path d="M129.611 199.744V182.152" stroke="#2484DC" stroke-width="2" stroke-miterlimit="10"/>
<path d="M132.247 179.998L126.268 180.792L128.927 165.674L134.24 168.06L132.247 179.998Z" fill="#2484DC"/>
<path d="M141.067 166.132L126.681 159.271L124.588 163.647L138.974 170.507L141.067 166.132Z" fill="#2484DC"/>
</svg>
