<svg width="251" height="232" viewBox="0 0 251 232" fill="none" xmlns="http://www.w3.org/2000/svg">
<path d="M0.0365103 73.3491C-1.01457 48.6985 20.7954 21.6877 43.9192 18.0163C60.211 15.3939 62.8387 26.408 83.8603 28.2437C115.656 30.8661 123.801 6.73998 165.319 1.75741C180.56 -0.0782706 201.056 -2.70068 214.72 9.62463C234.691 27.7192 229.698 68.6287 228.121 81.4785C225.494 101.671 220.501 106.916 224.18 119.766C229.698 138.385 243.888 139.171 249.143 155.693C255.187 174.312 245.99 200.536 228.647 212.074C209.202 224.924 195.275 208.665 155.071 218.368C131.685 224.137 131.159 230.956 113.553 231.742C95.1594 232.529 69.9335 226.235 54.6928 208.403C35.2478 185.326 52.5906 167.231 34.985 129.469C20.2698 96.4262 1.08759 95.9017 0.0365103 73.3491Z" fill="#D3EDFF"/>
<path d="M186.335 205.762L47.9126 165.413C35.4701 161.866 28.3601 148.786 31.9151 136.371L51.6898 68.9749C55.2448 56.5599 68.3538 49.4656 80.7963 53.0127L219.219 93.3616C231.661 96.9088 238.771 109.989 235.216 122.404L215.442 189.8C211.887 202.215 198.778 209.309 186.335 205.762Z" fill="#0049A2"/>
<path d="M142.564 107.772L73.9083 87.8195C71.9087 87.1545 70.7977 85.1592 71.4643 83.3856L73.6862 75.6262C74.3527 73.6309 76.3524 72.5224 78.1299 73.1875L146.786 93.1403C148.785 93.8054 149.896 95.8007 149.23 97.5742L147.008 105.334C146.563 107.107 144.564 108.216 142.564 107.772Z" fill="white"/>
<path d="M104.792 162.531L56.3556 148.342C54.3559 147.677 53.245 145.682 53.9116 143.909L54.5781 141.47C55.2447 139.475 57.2444 138.366 59.0219 139.031L107.459 153.22C109.458 153.885 110.569 155.88 109.903 157.654L109.236 160.092C108.57 161.866 106.57 162.974 104.792 162.531Z" fill="white"/>
<path d="M85.9065 113.98L67.9093 108.659C65.9096 107.994 64.7987 105.999 65.4653 104.225L67.6871 96.466C68.3537 94.4707 70.3534 93.3622 72.1309 94.0273L90.128 99.3481C92.1277 100.013 93.2386 102.008 92.5721 103.782L90.3502 111.541C89.9058 113.537 87.9062 114.645 85.9065 113.98Z" fill="#00FFFF"/>
<path d="M195.445 144.573L155.229 172.063C147.675 160.978 150.563 145.903 161.672 138.365C172.782 130.828 187.89 133.71 195.445 144.573Z" fill="#00FFFF"/>
<path d="M189.223 178.493C178.114 186.031 162.783 183.37 155.229 172.285L195.444 144.795C203.221 155.88 200.333 170.955 189.223 178.493Z" fill="#0049A2"/>
</svg>
