<svg width="828" height="479" viewBox="0 0 828 479" fill="none" xmlns="http://www.w3.org/2000/svg">
<path d="M710.055 419.314C603.913 494.49 471.691 464.543 422.613 453.505C359.899 439.302 364.804 426.242 292.661 405.575C270.51 399.196 247.989 394.176 225.225 390.543C174.126 382.423 132.736 383.334 99.8957 384.395C53.7009 385.886 24.4232 387.709 8.84818 364.921C-27.7531 311.506 57.6444 190.903 111.908 134.007C134.482 109.874 159.466 88.1163 186.47 69.0733C193.843 63.9356 201.664 58.8476 209.898 53.9751C252.15 28.817 305.237 8.64745 365.317 11.2992C408.397 13.2051 417.609 25.2372 521.399 68.659C739.913 160.16 800.39 149.022 821.151 202.951C848.176 273.172 776.497 372.296 710.055 419.314Z" fill="#D3EDFF"/>
<path d="M270.459 246.737C250.576 272.343 220.436 253.366 177.323 276.237C134.21 299.108 122.943 343.906 122.049 347.022C121.154 350.137 121.187 362.352 112.936 373.539C109.422 378.037 104.972 381.719 99.8957 384.328C53.7009 385.819 24.4232 387.642 8.84818 364.854C-27.7531 311.439 57.6444 190.836 111.908 133.94C134.482 109.807 159.466 88.0494 186.47 69.0064C193.843 63.8687 201.664 58.7807 209.898 53.9082C234.388 80.2098 249.664 111.914 256.541 126.416C266.101 146.503 297.516 212.016 270.459 246.737Z" fill="#0049A2"/>
<path d="M221.497 198.46C219.375 201.272 216.852 203.757 214.008 205.835C209.882 208.791 205.171 210.828 200.191 211.807C195.211 212.785 190.079 212.683 185.143 211.508C180.206 210.332 175.578 208.11 171.574 204.992C167.569 201.873 164.281 197.932 161.93 193.433C159.579 188.934 158.222 183.983 157.948 178.914C157.675 173.845 158.493 168.777 160.347 164.052C162.2 159.326 165.046 155.054 168.693 151.523C172.339 147.992 176.7 145.286 181.482 143.586C176.937 149.668 174.462 157.048 174.42 164.642C174.378 172.235 176.771 179.642 181.249 185.775C185.726 191.907 192.051 196.442 199.295 198.713C206.54 200.985 214.321 200.872 221.497 198.393V198.46Z" fill="#00FFFF"/>
<path d="M289.397 145.877C288.399 143.562 286.853 141.526 284.893 139.942C282.932 138.359 280.616 137.275 278.145 136.786C275.673 136.297 273.119 136.416 270.703 137.134C268.288 137.851 266.083 139.145 264.278 140.905C262.564 138.73 260.298 137.055 257.717 136.052C255.137 135.05 252.334 134.756 249.602 135.203C246.87 135.649 244.307 136.819 242.179 138.591C240.051 140.363 238.437 142.673 237.503 145.28C237.194 145.263 236.884 145.263 236.575 145.28C234.125 145.275 231.708 145.849 229.522 146.956C227.336 148.063 225.442 149.672 223.996 151.65C222.55 153.629 221.592 155.921 221.2 158.34C220.808 160.76 220.994 163.237 221.742 165.571C222.49 167.905 223.779 170.029 225.504 171.77C227.229 173.51 229.341 174.818 231.668 175.587C233.995 176.356 236.47 176.563 238.892 176.192C241.314 175.822 243.614 174.884 245.605 173.454C249.3 177.498 255.961 180.2 263.566 180.2C269.432 180.357 275.179 178.522 279.87 174.996C282.711 176.345 285.822 177.031 288.967 177.001C299.007 177.001 307.193 170.04 307.193 161.455C307.193 152.87 299.239 146.075 289.397 145.877Z" fill="white"/>
<path d="M241.214 91.0169C240.406 89.3312 239.125 87.9168 237.528 86.9458C235.931 85.9748 234.086 85.4891 232.217 85.5477C230.511 85.5155 228.826 85.9298 227.329 86.7496C225.833 87.5694 224.576 88.7662 223.684 90.2214H223.021C215.83 90.2214 209.998 95.3425 209.998 101.64C209.998 107.938 215.83 113.059 223.021 113.059C226.067 113.081 229.037 112.116 231.488 110.308C234.082 112.632 237.451 113.903 240.933 113.871C248.124 113.871 253.956 108.75 253.956 102.452C253.956 96.1546 248.256 91.166 241.214 91.0169Z" fill="white"/>
<path d="M158.037 289.696L125.396 317.009V317.092L121.734 316.064L133.332 274.863C122.327 272.259 110.752 273.677 100.7 278.86C90.6474 284.043 82.7787 292.651 78.5146 303.128C74.2505 313.606 73.8719 325.263 77.4472 335.995C81.0225 346.727 88.316 355.828 98.0111 361.653C107.706 367.477 119.164 369.643 130.315 367.759C141.467 365.875 151.578 360.066 158.822 351.379C166.067 342.692 169.968 331.701 169.821 320.389C169.674 309.078 165.488 298.192 158.02 289.696H158.037Z" fill="#00FFFF"/>
<path d="M168.527 332.948L159.039 330.27L158.481 332.247L167.969 334.926L168.527 332.948Z" fill="#0049A2"/>
<path d="M86.324 309.749L76.8359 307.07L76.2779 309.048L85.7659 311.726L86.324 309.749Z" fill="#0049A2"/>
<path d="M110.352 367.381L113.03 357.891L111.052 357.332L108.375 366.823L110.352 367.381Z" fill="#0049A2"/>
<path d="M122.347 331.161C127.846 331.161 132.305 326.702 132.305 321.201C132.305 315.7 127.846 311.24 122.347 311.24C116.847 311.24 112.389 315.7 112.389 321.201C112.389 326.702 116.847 331.161 122.347 331.161Z" fill="#0049A2"/>
<path d="M126.108 317.886L122.712 319.792L120.806 316.395L119 317.405L120.905 320.803L117.509 322.709L118.52 324.499L121.916 322.593L123.822 326.007L125.628 324.996L123.722 321.598L127.119 319.693L126.108 317.886Z" fill="#00FFFF"/>
<path d="M155.32 286.745C150.13 281.82 143.902 278.122 137.094 275.923C136.481 275.724 135.884 275.492 135.271 275.31C134.641 275.127 134.012 275.028 133.382 274.879L121.784 316.08L125.445 317.107L125.628 316.958L158.07 289.53C157.639 289.049 157.192 288.585 156.728 288.121" fill="#0049A2"/>
<path d="M658.233 187.056L636.593 164.458C627.503 154.965 612.441 154.639 602.951 163.73L580.361 185.371C570.871 194.462 570.547 209.527 579.637 219.02L601.277 241.618C610.368 251.111 625.429 251.437 634.919 242.346L657.51 220.704C666.999 211.614 667.323 196.549 658.233 187.056Z" fill="#00FFFF"/>
<path d="M593.331 172.968L590.998 175.203L645.568 232.19L647.901 229.954L593.331 172.968Z" fill="#0049A2"/>
<path d="M648.538 176.906L646.303 174.572L589.335 229.146L591.57 231.48L648.538 176.906Z" fill="#0049A2"/>
<path d="M678.203 111.118L655.688 85.5439C647.003 75.6789 631.968 74.7225 622.106 83.4078L596.54 105.924C586.678 114.609 585.724 129.647 594.409 139.512L616.923 165.087C625.608 174.952 640.643 175.908 650.505 167.223L676.072 144.707C685.934 136.022 686.888 120.983 678.203 111.118Z" fill="#1726A0"/>
<path d="M610.774 95.5441L608.44 97.7793L663.01 154.766L665.344 152.531L610.774 95.5441Z" fill="#00FFFF"/>
<path d="M665.974 99.4903L663.739 97.1562L606.772 151.73L609.007 154.064L665.974 99.4903Z" fill="#00FFFF"/>
<path d="M761.261 258.356L767.432 224.845C769.813 211.918 761.267 199.51 748.343 197.13L714.841 190.96C701.917 188.58 689.511 197.129 687.13 210.056L680.958 243.566C678.578 256.493 687.124 268.901 700.047 271.281L733.55 277.452C746.473 279.832 758.88 271.282 761.261 258.356Z" fill="#0049A2"/>
<path d="M733.288 194.87L730.021 194.316L716.528 273.959L719.795 274.513L733.288 194.87Z" fill="#00FFFF"/>
<path d="M763.728 242.569L764.281 239.301L684.658 225.812L684.104 229.08L763.728 242.569Z" fill="#00FFFF"/>
<g clip-path="url(#clip0)">
<path d="M567.13 320C555.831 320 544.785 323.351 535.39 329.628C525.995 335.906 518.673 344.828 514.349 355.267C510.025 365.706 508.893 377.193 511.098 388.276C513.302 399.358 518.743 409.537 526.733 417.527C534.723 425.517 544.902 430.958 555.985 433.162C567.067 435.367 578.554 434.235 588.993 429.911C599.432 425.587 608.354 418.265 614.632 408.87C620.909 399.475 624.26 388.429 624.26 377.13C624.26 361.978 618.241 347.447 607.527 336.733C596.813 326.019 582.282 320 567.13 320V320ZM567.13 419C558.855 418.996 550.766 416.539 543.887 411.939C537.008 407.339 531.647 400.802 528.482 393.156C525.317 385.51 524.49 377.097 526.105 368.981C527.721 360.864 531.706 353.409 537.558 347.558C543.409 341.706 550.864 337.721 558.981 336.105C567.097 334.49 575.51 335.317 583.156 338.482C590.802 341.647 597.339 347.008 601.939 353.887C606.539 360.766 608.996 368.855 609 377.13C609.003 382.629 607.921 388.075 605.818 393.156C603.715 398.237 600.631 402.854 596.742 406.742C592.854 410.631 588.237 413.715 583.156 415.818C578.075 417.921 572.629 419.003 567.13 419Z" fill="#0049A2"/>
<path d="M536.99 347.4L597.27 406.86" stroke="#0049A2" stroke-width="4" stroke-miterlimit="10"/>
<path d="M597.27 347.4L536.99 406.86" stroke="#0049A2" stroke-width="4" stroke-miterlimit="10"/>
<path d="M537.15 377.34L597.11 376.92" stroke="#0049A2" stroke-width="4" stroke-miterlimit="10"/>
<path d="M567.34 347.15L566.92 407.11" stroke="#0049A2" stroke-width="4" stroke-miterlimit="10"/>
<path d="M673.76 326.881C673.76 328.605 673.075 330.258 671.856 331.477C670.637 332.696 668.984 333.381 667.26 333.381H614.86C610.097 328.178 604.517 323.787 598.34 320.381H667.26C668.984 320.381 670.637 321.066 671.856 322.285C673.075 323.504 673.76 325.157 673.76 326.881Z" fill="#0049A2"/>
<path d="M659.76 351.881C659.76 353.605 659.076 355.258 657.857 356.477C656.638 357.696 654.984 358.381 653.26 358.381H629.12C627.754 353.857 625.892 349.497 623.57 345.381H653.26C654.984 345.381 656.638 346.066 657.857 347.285C659.076 348.504 659.76 350.157 659.76 351.881Z" fill="#0049A2"/>
</g>
<ellipse cx="566.5" cy="437" rx="44.5" ry="3" fill="#1726A0"/>
<g clip-path="url(#clip1)">
<path d="M491.789 209.37C491.383 203.672 490.417 198.028 488.904 192.518C490.511 181.293 490.034 169.868 487.497 158.815C486.721 155.486 485.758 152.204 484.612 148.984C470.836 152.902 467.895 159.868 467.262 161.623C465.855 165.598 467.262 171.819 470.076 184.092C471.216 188.867 472.257 192.757 472.975 195.327C472.848 199.849 472.834 204.539 472.975 209.37C473.387 223.528 475.026 237.624 477.872 251.5H477.703C477.703 251.5 468.641 259.926 468.641 265.543C468.641 271.16 470.147 271.16 470.147 271.16C470.147 271.16 473.172 271.16 474.678 266.947C476.183 262.734 477.703 264.139 477.703 264.139C477.703 264.139 479.209 273.969 474.678 278.182C470.147 282.395 470.147 285.204 470.147 286.608C470.225 287.362 470.574 288.063 471.131 288.579C471.687 289.096 472.412 289.393 473.172 289.417C474.678 289.417 485.245 279.586 486.751 275.373C488.158 271.596 487.032 255.446 486.751 252.118C487.384 249.225 488.158 245.7 488.819 241.67C491.057 229.41 492.591 220.478 491.789 209.37Z" fill="#FFD2A9"/>
<path d="M379.063 436.871C379.063 436.871 370.381 453.723 368.945 457.936C367.764 462.039 367.289 466.313 367.538 470.575C367.538 474.788 371.872 479.001 374.757 479.001C377.641 479.001 393.556 479.001 396.441 469.17C399.326 459.34 396.905 445.704 396.905 445.704L394.992 450.914L390.657 462.149L377.655 466.362L373.321 460.745L379.063 436.871Z" fill="#00FFFF"/>
<path d="M386.282 432.658C386.507 432.012 387.379 429.273 386.282 428.445C385.184 427.616 382.06 429.091 380.498 431.254C379.302 432.911 379.541 434.062 379.091 436.871C378.81 438.444 377.445 441.688 374.743 448.105C372.041 454.523 371.929 454.411 371.858 455.127C371.281 458.511 371.408 465.435 376.192 467.766C379.415 469.339 383.158 467.766 386.31 466.362C388.646 465.35 392.937 463.553 394.978 459.34C396.385 456.419 395.203 455.52 396.385 448.105C397.131 443.569 397.609 443.892 397.792 441.084C398.369 434.146 395.709 428.333 394.893 428.445C394.359 428.515 395.076 431.254 393.486 432.658C391.896 434.062 388.913 433.529 386.282 432.658Z" fill="black"/>
<path d="M455.738 436.871C455.738 436.871 464.406 453.723 465.856 457.936C467.036 462.039 467.512 466.313 467.263 470.575C467.263 474.788 462.929 479.001 460.03 479.001C457.131 479.001 441.245 479.001 438.36 469.17C435.475 459.34 437.896 445.704 437.896 445.704L439.908 450.914L444.242 462.149L457.258 466.362L461.592 460.745L455.738 436.871Z" fill="#00FFFF"/>
<path d="M448.506 432.658C448.294 432.012 447.422 429.273 448.506 428.445C449.589 427.616 452.727 429.091 454.289 431.254C455.499 432.911 455.26 434.062 455.696 436.871C455.978 438.444 457.328 441.688 460.03 448.105C462.732 454.523 462.844 454.411 462.929 455.127C463.506 458.511 463.379 465.435 458.581 467.766C455.372 469.339 451.629 467.766 448.463 466.362C446.142 465.35 441.85 463.553 439.795 459.34C438.388 456.419 439.584 455.52 438.388 448.105C437.628 443.569 437.164 443.892 436.981 441.084C436.404 434.146 439.05 428.333 439.795 428.445C440.344 428.515 439.626 431.254 441.202 432.658C442.778 434.062 445.874 433.529 448.506 432.658Z" fill="black"/>
<path d="M379.4 205.958C377.402 206.749 375.358 207.42 373.279 207.967C365.962 209.89 353.945 213.036 345.812 206.562C343.127 204.354 341.122 201.433 340.028 198.136C340.028 195.805 340.028 192.407 340.028 188.306C340.239 174.839 340.422 165.458 341.717 159.433C342.533 155.628 343.799 153.142 345.798 151.808C347.05 150.979 353.227 147.342 368.931 156.021C368.382 158.703 367.721 161.357 366.989 163.983C366.68 165.079 366.37 166.174 366.032 167.255C364.4 172.493 363.303 174.726 361.698 179.894C360.559 183.588 359.588 187.323 358.884 191.129C359.531 190.778 360.53 190.272 361.698 189.724C366.567 187.562 369.691 187.197 377.599 185.511L379.668 185.062C379.954 192.027 379.865 199.003 379.4 205.958Z" fill="#FFD2A9"/>
<path d="M382.693 430.145L383.397 435.467C383.397 435.467 387.731 438.276 394.95 435.467L395.653 430.145H382.693Z" fill="#FFD2A9"/>
<path d="M439.063 428.445L439.767 433.754C439.767 433.754 444.101 436.562 451.32 433.754L452.023 428.445H439.063Z" fill="#FFD2A9"/>
<path d="M455.654 427.041C452.601 428.879 449.102 429.85 445.537 429.85C441.971 429.85 438.473 428.879 435.419 427.041C432.099 406.146 430.648 384.997 431.085 363.846C431.282 355.041 431.803 346.601 432.492 338.568C427.492 312.897 422.478 287.217 417.45 261.527C412.347 287.676 407.243 313.824 402.14 339.973C402.886 348.005 403.393 356.445 403.547 365.25C403.984 386.402 402.534 407.55 399.213 428.445C396.16 430.283 392.662 431.254 389.096 431.254C385.53 431.254 382.032 430.283 378.979 428.445C376.463 407.475 375.991 386.311 377.571 365.25C378.233 356.389 379.232 347.949 380.456 339.973C379.049 323.977 378.064 307.097 377.571 289.417C377.107 272.776 377.149 256.851 377.571 241.67C394.373 235.337 408.669 235.056 416.169 238.791C422.755 233.665 438.346 233.174 457.061 240.266C457.497 255.446 457.525 271.371 457.061 288.013C456.583 305.693 455.555 322.573 454.247 338.568C455.485 346.545 456.484 354.985 457.061 363.846C458.655 384.906 458.184 406.072 455.654 427.041Z" fill="black"/>
<path d="M344.376 157.411C343.799 158.001 340.577 159.335 340.028 160.22C342.079 147.132 347.015 134.661 354.48 123.708C360.235 115.001 365.132 108.569 370.38 104.047C384.91 95.7673 401.351 91.4111 418.083 91.4082C437.408 91.6101 456.155 98.0107 471.554 109.664C477.637 119.324 482.492 129.703 486.006 140.559C488.819 149.239 490.756 158.178 491.789 167.242C483.803 167.686 475.967 169.59 468.67 172.859C467.671 173.308 466.7 173.786 465.771 174.263L457.103 143.368C452.4 177.463 453.351 212.097 459.917 245.884C446.1 252.12 431.147 255.462 415.984 255.704C400.821 255.945 385.77 253.081 371.759 247.288C374.253 239.001 376.185 230.556 377.543 222.01C378.443 216.323 378.95 210.958 379.33 205.959C384.935 203.697 390.156 200.584 394.809 196.732C397.971 194.213 400.879 191.391 403.491 188.306C405.411 188.868 407.426 189.034 409.412 188.792C411.398 188.551 413.314 187.908 415.043 186.902C417.979 184.934 420.048 181.919 420.827 178.476C422.994 170.879 418.814 164.349 418.012 163.029C418.153 169.165 412.693 173.519 407.895 172.859C403.378 172.241 399.452 167.242 400.662 161.624V156.007C397.09 158.248 394.509 161.763 393.444 165.837C392.527 169.628 393.027 173.623 394.851 177.072C393.632 178.69 392.17 180.112 390.517 181.285C388.476 182.689 386.549 183.518 379.583 185.048C379.414 181.018 379.175 177.423 378.964 174.263C378.387 165.837 378.64 154.827 376.065 141.964C373.659 149.449 369.804 156.948 367.397 164.433L366.905 163.969C359.25 156.821 350.16 154.28 344.278 157.411" fill="white"/>
<path d="M414.537 150.389H404.278C402.32 150.389 400.732 151.973 400.732 153.928V173.532C400.732 175.486 402.32 177.071 404.278 177.071H414.537C416.495 177.071 418.083 175.486 418.083 173.532V153.928C418.083 151.973 416.495 150.389 414.537 150.389Z" fill="black"/>
<path d="M420.967 178.475C420.189 181.918 418.119 184.932 415.184 186.901C413.455 187.906 411.539 188.55 409.553 188.791C407.566 189.032 405.552 188.867 403.631 188.305C401.02 191.39 398.112 194.212 394.949 196.731C390.296 200.583 385.075 203.695 379.471 205.958C379.941 198.998 380.035 192.017 379.752 185.047C386.718 183.517 388.645 182.716 390.686 181.284C392.339 180.11 393.801 178.689 395.02 177.071C393.196 173.621 392.696 169.627 393.613 165.836C394.678 161.762 397.259 158.246 400.831 156.006V161.623C399.663 167.24 403.547 172.24 408.064 172.858C412.862 173.518 418.322 169.164 418.181 163.027C418.955 164.305 423.134 170.878 420.967 178.475Z" fill="#FFD2A9"/>
<path d="M402.591 66.1289C404.284 72.5735 404.284 79.3448 402.591 85.7894C401.815 88.713 400.71 91.5396 399.298 94.2153C401.254 96.7502 403.749 98.8206 406.603 100.278C409.457 101.735 412.599 102.542 415.804 102.641C419.293 102.827 422.775 102.156 425.945 100.687C429.114 99.2181 431.875 96.996 433.984 94.2153C431.84 90.1354 430.584 85.6495 430.297 81.0513C430.011 76.4532 430.702 71.8466 432.324 67.5332L402.591 66.1289Z" fill="#FFD2A9"/>
<path d="M401.254 19.7878C397.972 22.3932 395.39 25.771 393.74 29.618C392.493 32.7373 391.978 36.0998 392.234 39.4483C390.574 37.9175 389.645 37.9175 389.251 38.0439C387.211 38.6478 387.661 44.0685 387.745 45.0655C387.942 47.4529 388.252 51.076 390.757 52.0871C391.728 52.4199 392.783 52.4199 393.754 52.0871C394.355 55.4734 395.366 58.7743 396.765 61.9174C397.272 63.0689 406.01 76.5645 417.788 77.3649C427.638 78.025 438.051 71.7476 443.328 52.0871C443.89 53.1825 444.425 53.4915 444.819 53.4915C446.761 53.674 448.675 48.6606 449.336 46.4699C450.209 43.5208 449.927 41.962 449.336 40.8526C449.198 40.5263 448.992 40.2326 448.733 39.9907C448.473 39.7488 448.166 39.5639 447.83 39.4483C447.247 39.3758 446.655 39.4691 446.122 39.7175C445.589 39.966 445.138 40.3594 444.819 40.8526C445.996 37.1998 445.996 33.2708 444.819 29.618C443.406 25.6415 440.784 22.2048 437.319 19.7878C427.539 12.4853 411.005 12.2044 401.254 19.7878Z" fill="#FFD2A9"/>
<path d="M401.465 35.9361C403.192 34.8747 405.211 34.3833 407.234 34.5318C408.774 34.6501 410.265 35.1314 411.582 35.9361" stroke="black" stroke-width="0.5" stroke-miterlimit="10"/>
<path d="M423.135 35.9371C424.656 35.0014 426.407 34.5059 428.193 34.5059C429.98 34.5059 431.731 35.0014 433.252 35.9371" stroke="black" stroke-width="0.5" stroke-miterlimit="10"/>
<path d="M416.634 0.12647C412.013 0.412418 407.54 1.86181 403.632 4.33943C395.639 9.50734 393.163 17.5822 392.065 21.1913C390.829 25.2836 390.352 29.5669 390.658 33.8302L393.557 36.6388C399.148 30.3598 406.864 26.3596 415.227 25.4043C431.958 23.6489 443.046 35.4311 444.144 36.6388C465.532 33.7319 469.993 30.5581 470.148 28.2129C470.387 24.6881 461.058 21.0087 457.146 19.787C452.475 18.339 447.557 17.861 442.694 18.3827C442.174 16.6272 438.698 5.54715 428.243 1.53079C424.528 0.200096 420.56 -0.279848 416.634 0.12647Z" fill="black"/>
<path d="M409.176 40.8516C408.137 40.8635 407.125 41.1917 406.278 41.7925C405.912 42.0541 405.585 42.3662 405.307 42.7193C406.186 43.2544 407.179 43.5766 408.205 43.6602C408.528 43.6881 408.853 43.6881 409.176 43.6602" stroke="black" stroke-width="0.5" stroke-miterlimit="10"/>
<path d="M427.961 40.8516C426.922 40.8635 425.911 41.1917 425.063 41.7925C424.7 42.058 424.374 42.3696 424.092 42.7193C424.972 43.252 425.964 43.5741 426.991 43.6602C427.314 43.6881 427.638 43.6881 427.961 43.6602" stroke="black" stroke-width="0.5" stroke-miterlimit="10"/>
<path d="M442.722 45.0648C441.315 43.6605 438.388 52.0864 434.054 54.8951C429.72 57.7037 425.372 53.4908 425.372 53.4908C425.372 53.4908 423.965 53.4908 422.558 56.2994C422.186 57.1363 421.578 57.8474 420.809 58.3466C420.039 58.8457 419.142 59.1113 418.224 59.1113C417.306 59.1113 416.409 58.8457 415.639 58.3466C414.87 57.8474 414.262 57.1363 413.89 56.2994C412.483 53.4908 410.991 53.4908 410.991 53.4908C410.991 53.4908 406.657 57.7037 402.323 54.8951C397.989 52.0864 395.091 43.6605 393.655 45.0648C392.22 46.4692 392.248 50.6821 392.248 50.6821C392.497 53.0613 392.968 55.4121 393.655 57.7037C395.062 63.321 405.208 77.3642 415.325 78.7685H421.109C431.226 77.3642 441.343 63.321 442.793 57.7037C443.48 55.4121 443.951 53.0613 444.2 50.6821C444.2 50.6821 444.13 46.4692 442.722 45.0648Z" fill="black"/>
</g>
<g clip-path="url(#clip2)">
<path d="M325.91 407.529C323.73 402.279 323.91 399.909 314.91 389.019C311.218 384.397 308.217 379.264 306 373.779C305.614 372.158 305.13 370.562 304.55 368.999C303.07 364.879 300 356.829 292.86 354.589C288.51 353.229 284.36 354.529 282.06 355.489C274.428 357.282 267.524 361.36 262.27 367.179C259.104 370.893 256.662 375.166 255.07 379.779C251.259 389.811 250.022 400.637 251.47 411.269C249.35 412.718 247.519 414.549 246.07 416.669C243.07 421.089 242.72 425.519 242.47 431.059C241.72 447.879 241.41 456.369 245.17 459.859C246.55 461.139 249.17 462.989 254.17 463.449C255.171 465.864 256.71 468.019 258.67 469.749C263.87 474.259 270.51 474.009 282.96 473.349C290.65 472.949 294.55 472.699 297.36 470.649C298.13 470.089 300.36 468.289 302.27 463.649C310.85 464.829 315.88 462.159 317.91 460.849C332 451.779 332.94 424.469 325.91 407.529ZM320.91 445.639C320.26 446.899 316.98 453.339 309.91 455.429C308.098 455.965 306.204 456.168 304.32 456.029C304.4 455.519 304.48 455.029 304.55 454.459C306 443.189 303.27 435.789 301.86 428.369C298.55 411.059 303.86 400.849 306.04 389.889C310.28 396.819 313.86 397.799 317.91 406.439C322.27 415.729 322.67 424.279 322.91 429.309C323.23 436.139 323.45 440.659 320.91 445.639Z" fill="black"/>
</g>
<defs>
<clipPath id="clip0">
<rect width="163.76" height="114.26" fill="white" transform="translate(510 320)"/>
</clipPath>
<clipPath id="clip1">
<rect width="152" height="479" fill="white" transform="translate(340)"/>
</clipPath>
<clipPath id="clip2">
<rect width="88.19" height="119.72" fill="white" transform="translate(242 354)"/>
</clipPath>
</defs>
</svg>
