<svg width="304" height="122" viewBox="0 0 304 122" fill="none" xmlns="http://www.w3.org/2000/svg">
<g clip-path="url(#clip0)">
<path d="M58.3848 2.56086C54.6988 3.50131 42.1664 6.89633 31.8982 18.3322C23.2713 27.9436 25.9568 32.4389 15.4078 53.0348C5.30641 72.803 -0.880798 76.0288 0.102134 85.2075C1.48 97.6403 14.3985 105.352 16.5926 106.659C33.3814 116.675 47.7393 108.662 76.6392 104.778C113.657 99.7845 144.119 105.634 156.116 107.938C188.395 114.136 188.887 121.481 211.45 121.819C222.859 121.989 261.755 122.572 277.386 95.3174C287.873 77.035 283.239 54.3326 280.896 42.9626C278.553 31.5925 276.394 20.7115 268.548 13.2914C256.261 1.55458 240.464 8.48569 209.098 11.4011C185.315 13.6394 135.703 18.3134 93.7089 5.09067C87.6446 3.18156 74.1995 -1.48307 58.3848 2.56086Z" fill="#EBF7FF"/>
</g>
<defs>
<clipPath id="clip0">
<rect width="303.239" height="120.445" fill="white" transform="translate(0 0.959961)"/>
</clipPath>
</defs>
</svg>
