<svg width="250" height="80" viewBox="0 0 250 80" fill="none" xmlns="http://www.w3.org/2000/svg">
<g clip-path="url(#clip0)">
<path d="M36.5643 7.85992C55.9121 2.41752 76.1349 0.82426 96.0928 3.16992C116.753 5.67992 117.85 10.2799 139.598 11.9399C160.198 13.4599 180.25 14.9399 202.476 6.56992C210.224 3.64992 216.825 0.0699163 226.557 1.20992C236.628 2.37992 248.953 8.48992 249.97 16.6299C250.867 23.8599 241.993 25.6299 232.58 40.1099C222.379 55.8799 226.128 64.2299 217.194 72.3099C210.942 77.9699 202.556 79.8099 187.759 79.6899C146.996 79.3599 141.542 64.7999 112.845 64.9299C85.613 65.0599 81.9336 78.2199 41.2807 79.6899C19.0846 80.4399 12.4238 76.8199 8.47515 72.9399C-3.49038 61.1699 -2.93199 34.8799 11.1475 19.9399C20.1515 10.3899 31.9077 8.38992 36.5643 7.85992Z" fill="#EBF7FF"/>
</g>
<defs>
<clipPath id="clip0">
<rect width="250" height="78.81" fill="white" transform="translate(0 0.939941)"/>
</clipPath>
</defs>
</svg>
