<svg width="336" height="98" viewBox="0 0 336 98" fill="none" xmlns="http://www.w3.org/2000/svg">
<path d="M47.5022 16.6013C83.3175 12.7785 81.9329 4.79282 106.33 4.04847C134.77 3.18466 134.327 14.1109 166.56 17.2997C203.705 20.9755 211.043 7.10856 250.56 13.1185C274.154 16.7024 284.852 23.6588 291.176 29.1541C293.742 31.3779 313.975 48.9574 309.379 67.4925C306.988 77.1782 298.874 82.8114 296.779 84.2265C275.613 98.4978 255.176 78.5474 207.139 75.1657C186.462 73.7046 153.231 71.3613 118.939 85.6233C108.444 89.9791 101.742 94.2798 90.2221 93.9857C72.6099 93.5355 68.8991 82.9584 39.8038 68.8893C16.1361 57.4209 3.57309 57.1176 0.582323 46.5773C-2.03921 37.3327 5.01308 28.3362 5.48385 27.7573C13.69 17.5937 27.2038 18.77 47.5022 16.6013Z" fill="#EBF7FF"/>
</svg>
