<svg width="317" height="126" viewBox="0 0 317 126" fill="none" xmlns="http://www.w3.org/2000/svg">
<g clip-path="url(#clip0)">
<path d="M1.38531 19.0743C3.8134 9.11994 19.3498 4.88957 26.1418 3.07894C54.9534 -4.73098 80.5692 4.58084 85.1083 6.29969C109.89 15.6783 106.469 24.7565 123.315 28.5696C150.959 34.8276 159.453 19.0743 181.481 19.0743C186.437 19.3746 202.758 15.0191 219.863 38.4739C227.536 48.9954 219.863 69.0377 254.49 71.3406C264.102 71.9799 276.935 74.2276 286.614 81.7705C296.293 89.3134 302.051 96.7896 294.124 111.809C289.751 120.094 282.609 125.334 264.52 125.56C233.722 125.943 223.993 113.194 185.986 114.996C167.204 115.881 148.589 130.666 117.566 124.441C70.6566 115.021 72.3671 125.651 45.8084 122.973C33.96 121.821 4.28066 112.251 0.459138 94.3866C-2.04404 82.5048 6.60027 76.8059 7.88524 63.197C9.04504 50.9814 4.54767 41.3442 3.4713 38.4739C2.90046 36.9786 2.45666 35.4379 2.14461 33.868C0.709456 26.7006 0.634361 22.1448 1.38531 19.0743Z" fill="#EBF7FF"/>
</g>
<defs>
<clipPath id="clip0">
<rect width="316.218" height="125.96" fill="white"/>
</clipPath>
</defs>
</svg>
