<svg width="436" height="79" viewBox="0 0 436 79" fill="none" xmlns="http://www.w3.org/2000/svg">
<g clip-path="url(#clip0)">
<path d="M36.67 6.91985C56.0736 1.47746 76.3546 -0.115804 96.37 2.22985C117.09 4.73985 118.19 9.33985 140 10.9999C160.66 12.5199 180.77 13.9999 203.06 5.62985C210.83 2.70985 217.45 -0.870147 227.21 0.269853C237.31 1.43985 249.67 7.54985 250.69 15.6899C251.59 22.9199 242.69 24.6898 233.25 39.1698C223.02 54.9398 226.78 63.2899 217.82 71.3699C211.55 77.0299 203.14 78.8699 188.3 78.7499C147.42 78.4199 141.95 63.8599 113.17 63.9899C85.86 64.1199 82.17 77.2799 41.4 78.7499C19.14 79.4999 12.46 75.8799 8.50003 71.9999C-3.49997 60.2299 -2.93997 33.9399 11.18 18.9999C20.21 9.44985 32 7.44985 36.67 6.91985Z" fill="#EBF7FF"/>
</g>
<path d="M223 46.0942C251.5 31.9275 284.243 19.1184 335 24.0942C386 29.0937 405.167 45.4271 434.5 66.0938" stroke="#000C73" stroke-width="2" stroke-dasharray="8 8"/>
<circle cx="220" cy="47.5938" r="5" fill="#000C73"/>
<defs>
<clipPath id="clip0">
<rect width="250.72" height="78.81" fill="white"/>
</clipPath>
</defs>
</svg>
