<svg width="379" height="162" viewBox="0 0 379 162" fill="none" xmlns="http://www.w3.org/2000/svg">
<g clip-path="url(#clip0)">
<path d="M1.65989 33.8605C4.56989 21.9305 23.1899 16.8605 31.3299 14.6905C65.8599 5.33052 96.5599 16.4905 102 18.5505C131.7 29.7905 127.6 40.6705 147.79 45.2405C180.92 52.7405 191.1 33.8605 217.5 33.8605C223.44 34.2205 243 29.0005 263.5 57.1105C272.696 69.7202 263.5 93.7405 305 96.5005C316.52 97.2666 331.9 99.9605 343.5 109C355.1 118.04 362 127 352.5 145C347.259 154.931 338.7 161.211 317.02 161.481C280.11 161.941 268.45 146.661 222.9 148.821C200.39 149.881 178.08 167.601 140.9 160.141C84.6799 148.851 86.7299 161.591 54.8999 158.381C40.6999 157.001 5.12989 145.531 0.549886 124.121C-2.45011 109.881 7.90989 103.051 9.44989 86.7405C10.8399 72.1005 5.44989 60.5505 4.15989 57.1105C3.47575 55.3185 2.94387 53.4719 2.56989 51.5905C0.849886 43.0005 0.759886 37.5405 1.65989 33.8605Z" fill="#EBF7FF"/>
</g>
<path d="M145 43.995C167.532 31.1051 194.393 9.97595 225.5 4.99997C275 -2.91821 301.084 5.98646 306 8.30003" stroke="#000C73" stroke-width="2" stroke-dasharray="8 8"/>
<circle cx="140" cy="46.9941" r="5" fill="#000C73"/>
<defs>
<clipPath id="clip0">
<rect width="378.98" height="150.96" fill="white" transform="translate(0 11)"/>
</clipPath>
</defs>
</svg>
