<svg width="457" height="122" viewBox="0 0 457 122" fill="none" xmlns="http://www.w3.org/2000/svg">
<g clip-path="url(#clip0)">
<path d="M172.46 13.7108C211.26 9.55079 209.76 0.860795 236.19 0.0507945C267 -0.889205 266.52 11.0008 301.44 14.4708C341.68 18.4708 349.63 3.38079 392.44 9.92079C418 13.8208 429.59 21.3908 436.44 27.3708C439.22 29.7908 461.14 48.9208 456.16 69.0908C453.57 79.6308 444.78 85.7608 442.51 87.3008C419.58 102.831 397.44 81.1208 345.4 77.4408C323 75.8508 287 73.3008 249.85 88.8208C238.48 93.5608 231.22 98.2408 218.74 97.9208C199.66 97.4308 195.64 85.9208 164.12 70.6108C138.48 58.1308 124.87 57.8008 121.63 46.3308C118.79 36.2708 126.43 26.4808 126.94 25.8508C135.83 14.7908 150.47 16.0708 172.46 13.7108Z" fill="#EBF7FF"/>
</g>
<path d="M149.591 60.1128C70.5 48.9443 30 82.999 1 120.999" stroke="#000C73" stroke-width="2" stroke-dasharray="8 8"/>
<circle cx="151.591" cy="60" r="5" fill="#000C73"/>
<defs>
<clipPath id="clip0">
<rect width="335.94" height="97.94" fill="white" transform="translate(121)"/>
</clipPath>
</defs>
</svg>
