<svg width="479" height="129" viewBox="0 0 479 129" fill="none" xmlns="http://www.w3.org/2000/svg">
<g clip-path="url(#clip0)">
<path d="M217.299 1.70824C213.366 2.71174 199.993 6.33438 189.037 18.537C179.832 28.7928 182.697 33.5895 171.441 55.5662C160.662 76.6599 154.06 80.1019 155.109 89.896C156.579 103.162 170.364 111.391 172.705 112.786C190.62 123.473 205.94 114.923 236.778 110.779C276.277 105.45 308.782 111.692 321.583 114.151C356.026 120.764 356.551 128.601 380.627 128.962C392.801 129.143 434.305 129.765 450.983 100.684C462.174 81.1756 457.229 56.9511 454.729 44.8187C452.229 32.6864 449.925 21.0758 441.553 13.1582C428.443 0.63449 411.586 8.0303 378.117 11.1412C352.739 13.5295 299.801 18.5169 254.992 4.40766C248.521 2.37055 234.174 -2.60682 217.299 1.70824Z" fill="#EBF7FF"/>
</g>
<path d="M175.5 59.986C100 29.4849 38 38.4849 1 67.4852" stroke="#000C73" stroke-width="2" stroke-dasharray="8 8"/>
<circle cx="180.5" cy="62.9863" r="5" fill="#000C73"/>
<defs>
<clipPath id="clip0">
<rect width="323.57" height="128.52" fill="white" transform="translate(155)"/>
</clipPath>
</defs>
</svg>
