<svg width="171" height="57" viewBox="0 0 171 57" fill="none" xmlns="http://www.w3.org/2000/svg">
<g clip-path="url(#clip0)">
<path d="M157.383 0.00018525H13.6251C13.101 0.00018525 12.5833 0.00018525 12.0607 0.00303525C11.6232 0.00588525 11.1892 0.0141645 10.7475 0.0211327C9.78796 0.0323928 8.83066 0.116574 7.88394 0.272944C6.93855 0.432719 6.02277 0.73394 5.16758 1.16642C4.31344 1.60256 3.53298 2.16927 2.85453 2.84601C2.17251 3.52084 1.604 4.30086 1.17085 5.15606C0.736507 6.00957 0.435331 6.92417 0.277726 7.86829C0.118623 8.81122 0.0330076 9.76503 0.0216494 10.7211C0.00838823 11.158 0.00698781 11.5964 0 12.0334V44.9712C0.00698781 45.4137 0.00838823 45.8423 0.0216494 46.2849C0.0330111 47.241 0.118626 48.1947 0.277726 49.1376C0.434896 50.0823 0.73609 50.9974 1.17085 51.8512C1.6038 52.7037 2.1724 53.4805 2.85453 54.1516C3.53041 54.8314 4.31137 55.3985 5.16758 55.8313C6.02276 56.2649 6.93844 56.5679 7.88394 56.7301C8.83082 56.8853 9.78802 56.9695 10.7475 56.9821C11.1892 56.9918 11.6232 56.9973 12.0607 56.9973C12.5833 57.0002 13.1011 57.0002 13.6251 57.0002H157.383C157.896 57.0002 158.418 57.0002 158.932 56.9973C159.367 56.9973 159.814 56.9918 160.249 56.9821C161.207 56.9701 162.162 56.8859 163.107 56.7301C164.056 56.5668 164.975 56.2638 165.834 55.8313C166.689 55.3982 167.47 54.8311 168.145 54.1516C168.825 53.4779 169.395 52.7016 169.833 51.8512C170.265 50.9968 170.563 50.0817 170.718 49.1376C170.877 48.1946 170.966 47.241 170.983 46.2849C170.989 45.8423 170.989 45.4137 170.989 44.9712C171 44.4535 171 43.9386 171 43.4125V13.5892C171 13.0673 171 12.5496 170.989 12.0334C170.989 11.5964 170.989 11.158 170.983 10.7211C170.966 9.76489 170.877 8.8113 170.718 7.86824C170.563 6.92466 170.264 6.01013 169.833 5.15601C168.951 3.44184 167.553 2.04652 165.834 1.16629C164.975 0.734869 164.056 0.433728 163.107 0.272816C162.162 0.115757 161.207 0.0315463 160.249 0.0209332C159.814 0.0139792 159.367 0.00562875 158.932 0.00285C158.418 0 157.896 0 157.383 0V0.00018525Z" fill="#A6A6A6"/>
<path d="M12.0672 55.7523C11.6318 55.7523 11.2069 55.7468 10.775 55.7371C9.88011 55.7255 8.98733 55.6478 8.10397 55.5047C7.28028 55.3632 6.48235 55.1001 5.73649 54.7239C4.99747 54.3509 4.32343 53.8618 3.74018 53.2753C3.14848 52.6957 2.65587 52.0235 2.28187 51.2853C1.90374 50.5422 1.64205 49.7458 1.50592 48.9237C1.35891 48.0404 1.27937 47.1472 1.26799 46.2519C1.25893 45.9513 1.24707 44.9507 1.24707 44.9507V12.0324C1.24707 12.0324 1.2597 11.0471 1.26806 10.7577C1.27896 9.86376 1.35804 8.97195 1.5046 8.08998C1.64099 7.26565 1.90288 6.46694 2.28121 5.72149C2.65384 4.98379 3.14372 4.31107 3.73184 3.72941C4.31931 3.14223 4.99551 2.65058 5.73579 2.27239C6.47993 1.89745 7.27636 1.63616 8.09838 1.49728C8.98465 1.35274 9.88052 1.27459 10.7785 1.26349L12.0679 1.24609H158.924L160.229 1.26419C161.119 1.27474 162.007 1.35218 162.885 1.49588C163.715 1.63651 164.52 1.89962 165.272 2.27657C166.755 3.03872 167.962 4.24453 168.723 5.72497C169.096 6.46527 169.354 7.25747 169.488 8.07468C169.637 8.96388 169.72 9.8627 169.737 10.764C169.741 11.1675 169.741 11.601 169.741 12.0324C169.752 12.5668 169.752 13.0754 169.752 13.5882V43.4116C169.752 43.9293 169.752 44.4344 169.741 44.9437C169.741 45.4071 169.741 45.8316 169.735 46.2685C169.718 47.1537 169.637 48.0365 169.491 48.9098C169.358 49.7378 169.097 50.5404 168.719 51.2895C168.343 52.0197 167.853 52.6861 167.268 53.2641C166.684 53.8538 166.009 54.3458 165.268 54.7212C164.518 55.1003 163.714 55.3644 162.885 55.5047C162.001 55.6485 161.109 55.7262 160.214 55.7371C159.795 55.7468 159.357 55.7523 158.931 55.7523L157.382 55.7552L12.0672 55.7523Z" fill="black"/>
<path d="M35.3944 28.9271C35.4098 27.7377 35.7266 26.5715 36.3154 25.537C36.9041 24.5025 37.7458 23.6334 38.7619 23.0104C38.1164 22.0911 37.2648 21.3345 36.2747 20.8007C35.2847 20.267 34.1835 19.9708 33.0585 19.9357C30.6589 19.6845 28.3326 21.3676 27.1098 21.3676C25.8633 21.3676 23.9806 19.9606 21.9532 20.0022C20.6419 20.0445 19.3638 20.4248 18.2437 21.106C17.1235 21.7872 16.1994 22.7462 15.5614 23.8895C12.7977 28.661 14.8592 35.6735 17.5066 39.5304C18.8311 41.419 20.3791 43.5286 22.4046 43.4538C24.3868 43.3718 25.127 42.1934 27.5196 42.1934C29.89 42.1934 30.5845 43.4538 32.6512 43.4063C34.778 43.3718 36.1181 41.5092 37.3962 39.6027C38.3478 38.257 39.0802 36.7697 39.566 35.1959C38.3303 34.6747 37.2758 33.8024 36.534 32.6876C35.7922 31.5728 35.3958 30.265 35.3944 28.9271Z" fill="white"/>
<path d="M31.4909 17.3999C32.6506 16.0117 33.2219 14.2273 33.0835 12.4258C31.3118 12.6113 29.6752 13.4557 28.4999 14.7907C27.9252 15.4429 27.4851 16.2016 27.2047 17.0235C26.9243 17.8454 26.809 18.7144 26.8655 19.5807C27.7517 19.5898 28.6284 19.3983 29.4296 19.0205C30.2308 18.6428 30.9356 18.0887 31.4909 17.3999Z" fill="white"/>
<path d="M60.4497 38.6725H53.6856L52.0613 43.4554H49.1963L55.6031 25.7598H58.5797L64.9865 43.4554H62.0726L60.4497 38.6725ZM54.3862 36.4654H59.7478L57.1047 28.703H57.0307L54.3862 36.4654Z" fill="white"/>
<path d="M78.8228 37.0049C78.8228 41.0141 76.6709 43.5899 73.4235 43.5899C72.6009 43.6328 71.7828 43.4439 71.0629 43.0447C70.343 42.6455 69.7503 42.0522 69.3528 41.3327H69.2914V47.723H66.6357V30.5534H69.2063V32.6992H69.2552C69.6709 31.9832 70.2736 31.393 70.999 30.9914C71.7244 30.5897 72.5454 30.3917 73.3747 30.4184C76.6583 30.4184 78.8228 33.0068 78.8228 37.0049ZM76.0931 37.0049C76.0931 34.3928 74.7395 32.6756 72.6741 32.6756C70.6451 32.6756 69.2803 34.429 69.2803 37.0049C69.2803 39.6044 70.6451 41.3453 72.6741 41.3453C74.7395 41.3453 76.0931 39.6406 76.0931 37.0049Z" fill="white"/>
<path d="M93.063 37.0048C93.063 41.0141 90.9111 43.5899 87.6638 43.5899C86.8412 43.6328 86.0231 43.4439 85.3031 43.0447C84.5832 42.6455 83.9906 42.0522 83.5931 41.3327H83.5316V47.7229H80.876V30.5534H83.4465V32.6992H83.4953C83.9111 31.9832 84.5138 31.393 85.2392 30.9914C85.9646 30.5897 86.7856 30.3917 87.6149 30.4184C90.8986 30.4184 93.063 33.0068 93.063 37.0048ZM90.3334 37.0048C90.3334 34.3928 88.9797 32.6756 86.9144 32.6756C84.8853 32.6756 83.5205 34.429 83.5205 37.0048C83.5205 39.6044 84.8853 41.3453 86.9144 41.3453C88.9797 41.3453 90.3334 39.6405 90.3334 37.0048H90.3334Z" fill="white"/>
<path d="M102.474 38.5251C102.671 40.2799 104.381 41.4321 106.717 41.4321C108.955 41.4321 110.566 40.2799 110.566 38.6976C110.566 37.3241 109.594 36.5017 107.294 35.938L104.995 35.3856C101.736 34.6007 100.223 33.0811 100.223 30.6152C100.223 27.562 102.892 25.4648 106.68 25.4648C110.43 25.4648 113.001 27.562 113.087 30.6152H110.406C110.246 28.8492 108.782 27.7833 106.643 27.7833C104.503 27.7833 103.04 28.8618 103.04 30.4315C103.04 31.6825 103.975 32.4187 106.262 32.9822L108.217 33.4609C111.858 34.3196 113.37 35.778 113.37 38.3663C113.37 41.677 110.726 43.7504 106.52 43.7504C102.585 43.7504 99.9275 41.7257 99.7559 38.525L102.474 38.5251Z" fill="white"/>
<path d="M119.101 27.5V30.5532H121.561V32.6503H119.101V39.7628C119.101 40.8677 119.594 41.3826 120.675 41.3826C120.967 41.3775 121.259 41.3571 121.549 41.3213V43.406C121.063 43.4966 120.568 43.5376 120.074 43.5284C117.454 43.5284 116.433 42.5473 116.433 40.0452V32.6503H114.552V30.5532H116.433V27.5H119.101Z" fill="white"/>
<path d="M122.986 37.0046C122.986 32.9453 125.384 30.3945 129.122 30.3945C132.874 30.3945 135.26 32.9453 135.26 37.0046C135.26 41.0751 132.886 43.6147 129.122 43.6147C125.36 43.6147 122.986 41.0751 122.986 37.0046ZM132.554 37.0046C132.554 34.22 131.274 32.5766 129.122 32.5766C126.97 32.5766 125.692 34.2326 125.692 37.0046C125.692 39.8004 126.97 41.4313 129.122 41.4313C131.274 41.4313 132.554 39.8004 132.554 37.0046H132.554Z" fill="white"/>
<path d="M137.449 30.5533H139.982V32.7492H140.044C140.215 32.0634 140.618 31.4573 141.185 31.0328C141.751 30.6083 142.447 30.3913 143.156 30.4183C143.462 30.4172 143.767 30.4503 144.065 30.5171V32.9941C143.679 32.8764 143.276 32.8223 142.872 32.8341C142.486 32.8185 142.102 32.8863 141.745 33.0329C141.388 33.1795 141.067 33.4015 140.804 33.6835C140.541 33.9655 140.342 34.3008 140.222 34.6666C140.101 35.0323 140.061 35.4198 140.105 35.8024V43.4548H137.449L137.449 30.5533Z" fill="white"/>
<path d="M156.31 39.6654C155.953 42.0074 153.666 43.6147 150.739 43.6147C146.976 43.6147 144.64 41.1001 144.64 37.0659C144.64 33.0191 146.988 30.3945 150.628 30.3945C154.207 30.3945 156.458 32.8465 156.458 36.7583V37.6656H147.32V37.8257C147.278 38.3005 147.338 38.7788 147.495 39.2289C147.653 39.679 147.904 40.0905 148.234 40.4361C148.563 40.7817 148.962 41.0536 149.405 41.2336C149.847 41.4135 150.323 41.4976 150.801 41.48C151.428 41.5387 152.058 41.3937 152.596 41.0668C153.135 40.7398 153.553 40.2483 153.789 39.6654L156.31 39.6654ZM147.333 35.8148H153.801C153.825 35.3879 153.76 34.9607 153.611 34.5599C153.461 34.1592 153.23 33.7936 152.932 33.4862C152.634 33.1787 152.275 32.936 151.879 32.7732C151.482 32.6105 151.056 32.5312 150.628 32.5404C150.195 32.5378 149.767 32.6207 149.366 32.7842C148.966 32.9477 148.603 33.1886 148.296 33.493C147.99 33.7975 147.747 34.1594 147.582 34.5579C147.416 34.9564 147.332 35.3836 147.333 35.8148V35.8148Z" fill="white"/>
<path d="M52.4995 16.0363H53.6396C53.8359 16.0606 54.0351 16.0442 54.2246 15.988C54.4142 15.9318 54.5901 15.837 54.7411 15.7097C54.8922 15.5824 55.0151 15.4252 55.1022 15.2481C55.1893 15.0711 55.2387 14.8779 55.2472 14.6809C55.2472 13.8967 54.6555 13.3902 53.6522 13.3902C53.4511 13.3621 53.2464 13.3746 53.0502 13.4267C52.8541 13.4789 52.6703 13.5697 52.51 13.6939C52.3496 13.818 52.2157 13.973 52.1164 14.1495C52.017 14.3261 51.9542 14.5207 51.9315 14.7219H50.6797C50.7012 14.3567 50.7979 13.9998 50.9638 13.6735C51.1297 13.3471 51.3611 13.0583 51.6437 12.825C51.9264 12.5918 52.2541 12.419 52.6066 12.3175C52.9591 12.216 53.3288 12.188 53.6926 12.2351C55.3714 12.2351 56.5535 13.1724 56.5535 14.5215C56.5574 14.9735 56.4058 15.4131 56.1238 15.7671C55.8419 16.121 55.4468 16.3678 55.0044 16.4663V16.5665C55.5289 16.5897 56.0228 16.819 56.3781 17.2043C56.7335 17.5896 56.9215 18.0995 56.9009 18.6226C56.8621 18.9986 56.7484 19.3631 56.5665 19.6948C56.3846 20.0265 56.1381 20.3186 55.8415 20.554C55.5449 20.7894 55.2041 20.9635 54.8392 21.0659C54.4743 21.1683 54.0926 21.197 53.7164 21.1504C53.3394 21.2017 52.9559 21.1767 52.5888 21.077C52.2217 20.9773 51.8785 20.8049 51.5796 20.5702C51.2807 20.3354 51.0323 20.043 50.8492 19.7104C50.6661 19.3778 50.552 19.0119 50.5137 18.6344H51.785C51.8617 19.4478 52.6111 19.9725 53.7164 19.9725C54.8216 19.9725 55.5431 19.3831 55.5431 18.5524C55.5431 17.7097 54.8635 17.1907 53.6759 17.1907H52.4995V16.0363Z" fill="white"/>
<path d="M58.3457 19.1302C58.3457 17.9751 59.2095 17.3093 60.739 17.2146L62.482 17.1144V16.5606C62.482 15.8829 62.034 15.5002 61.1646 15.5002C60.4557 15.5002 59.9659 15.7597 59.8235 16.2134H58.5941C58.7239 15.1112 59.7649 14.4043 61.2246 14.4043C62.8379 14.4043 63.7477 15.2051 63.7477 16.5606V20.9448H62.5239V20.0431H62.4234C62.2194 20.3665 61.9331 20.6302 61.5935 20.8072C61.2539 20.9842 60.8734 21.0682 60.4906 21.0505C60.2205 21.0786 59.9475 21.0498 59.6891 20.9662C59.4308 20.8825 59.193 20.7458 58.9909 20.5649C58.7888 20.384 58.627 20.1628 58.5159 19.9157C58.4047 19.6686 58.3468 19.401 58.3457 19.1302ZM62.482 18.5819V18.0454L60.9106 18.1456C60.0244 18.2047 59.6225 18.5053 59.6225 19.071C59.6225 19.6485 60.1249 19.9846 60.8157 19.9846C61.0182 20.005 61.2226 19.9847 61.417 19.9247C61.6113 19.8647 61.7916 19.7664 61.9471 19.6355C62.1025 19.5046 62.23 19.3439 62.3219 19.1629C62.4138 18.9819 62.4682 18.7843 62.482 18.5819Z" fill="white"/>
<path d="M67.1176 15.5933V20.944H65.8477V14.5273H70.0845V15.5932L67.1176 15.5933Z" fill="white"/>
<path d="M77.7805 17.7326C77.7805 19.7713 76.7465 21.0495 75.1221 21.0495C74.7234 21.0766 74.3251 20.9896 73.9743 20.7987C73.6235 20.6077 73.3347 20.3208 73.1419 19.9717H73.0414V23.077H71.7715V14.527H72.994V15.5875H73.0889C73.2851 15.2261 73.5777 14.9259 73.9343 14.72C74.2909 14.5141 74.6976 14.4105 75.1095 14.4206C76.7465 14.4206 77.7805 15.6932 77.7805 17.7326ZM76.4744 17.7326C76.4744 16.3772 75.831 15.5582 74.7551 15.5582C73.6862 15.5582 73.0177 16.3945 73.0177 17.7381C73.0177 19.0755 73.6861 19.9125 74.7495 19.9125C75.831 19.9125 76.4744 19.0935 76.4744 17.7326Z" fill="white"/>
<path d="M79.4714 23.2423V22.1519C79.6088 22.1694 79.7473 22.1773 79.8858 22.1756C80.1563 22.1956 80.4248 22.1152 80.6396 21.95C80.8544 21.7847 81.0004 21.5461 81.0496 21.2801L81.1445 20.9677L78.8154 14.5273H80.1984L81.8116 19.6241H81.9121L83.5197 14.5273H84.8664L82.4676 21.2091C81.9177 22.7705 81.3093 23.2715 79.9975 23.2715C79.8914 23.2715 79.59 23.2596 79.4714 23.2423Z" fill="white"/>
<path d="M85.8564 19.1235H87.1208C87.245 19.6892 87.7767 19.9842 88.5205 19.9842C89.3662 19.9842 89.8853 19.6126 89.8853 19.0351C89.8853 18.4165 89.4192 18.1215 88.5205 18.1215H87.5576V17.1377H88.5037C89.2713 17.1377 89.662 16.8433 89.662 16.3069C89.662 15.8358 89.2838 15.4761 88.5037 15.4761C87.7934 15.4761 87.2743 15.7767 87.1919 16.2832H85.9681C86.0596 15.7012 86.3765 15.1782 86.8507 14.8267C87.3249 14.4753 87.9184 14.3234 88.5037 14.4039C90.0332 14.4039 90.9082 15.0934 90.9082 16.1775C90.9153 16.4794 90.8183 16.7745 90.6334 17.0136C90.4485 17.2528 90.1869 17.4213 89.8923 17.4912V17.5913C90.243 17.6365 90.5649 17.8084 90.797 18.0745C91.029 18.3407 91.155 18.6825 91.151 19.0351C91.151 20.2549 90.11 21.062 88.5205 21.062C87.1152 21.0619 85.9737 20.4197 85.8564 19.1235Z" fill="white"/>
<path d="M92.9795 20.944V14.5273H94.2382V18.9408H94.3387L97.3042 14.5274H98.5629V20.944H97.3042V16.5069H97.2093L94.2382 20.9441L92.9795 20.944Z" fill="white"/>
<path d="M105.498 15.5932H103.471V20.9439H102.2V15.5932H100.174V14.5273H105.498V15.5932Z" fill="white"/>
<path d="M112.338 19.2124C112.165 19.7988 111.791 20.306 111.281 20.6453C110.771 20.9846 110.158 21.1345 109.549 21.0688C109.125 21.0799 108.703 20.999 108.314 20.8315C107.925 20.664 107.576 20.414 107.294 20.0989C107.011 19.7838 106.8 19.4111 106.676 19.0066C106.552 18.6022 106.518 18.1757 106.576 17.7568C106.52 17.3366 106.555 16.9092 106.678 16.5035C106.802 16.0978 107.011 15.7234 107.293 15.4055C107.574 15.0876 107.92 14.8337 108.309 14.661C108.697 14.4883 109.118 14.4008 109.543 14.4044C111.334 14.4044 112.415 15.6242 112.415 17.6392V18.081H107.871V18.152C107.851 18.3875 107.881 18.6247 107.958 18.8481C108.035 19.0716 108.158 19.2765 108.32 19.4496C108.481 19.6227 108.677 19.7603 108.895 19.8534C109.113 19.9465 109.348 19.9931 109.585 19.9903C109.889 20.0265 110.196 19.9718 110.468 19.8333C110.741 19.6948 110.966 19.4786 111.114 19.2124L112.338 19.2124ZM107.871 17.1445H111.12C111.136 16.9292 111.107 16.713 111.034 16.5097C110.961 16.3064 110.847 16.1205 110.698 15.964C110.549 15.8075 110.369 15.6837 110.169 15.6008C109.969 15.5178 109.754 15.4774 109.538 15.4822C109.318 15.4792 109.1 15.5202 108.896 15.6027C108.693 15.6852 108.508 15.8075 108.352 15.9625C108.197 16.1174 108.074 16.3019 107.992 16.5049C107.909 16.7079 107.868 16.9254 107.871 17.1445H107.871Z" fill="white"/>
<path d="M117.722 14.5273H120.623C121.882 14.5273 122.62 15.1633 122.62 16.159C122.622 16.4749 122.515 16.7819 122.317 17.0287C122.119 17.2754 121.842 17.4469 121.533 17.5144V17.6146C121.909 17.6383 122.261 17.805 122.517 18.0803C122.773 18.3555 122.913 18.7184 122.909 19.0939C122.909 20.2134 122.064 20.944 120.652 20.944H117.722V14.5273ZM118.98 15.4994V17.1609H120.239C121.007 17.1609 121.374 16.8666 121.374 16.3239C121.374 15.8236 121.054 15.4994 120.38 15.4994L118.98 15.4994ZM118.98 18.0919V19.972H120.486C121.237 19.972 121.639 19.6415 121.639 19.0348C121.639 18.3925 121.184 18.092 120.327 18.092L118.98 18.0919Z" fill="white"/>
</g>
<defs>
<clipPath id="clip0">
<rect width="171" height="57" fill="white"/>
</clipPath>
</defs>
</svg>
