<svg width="190" height="56" viewBox="0 0 190 56" fill="none" xmlns="http://www.w3.org/2000/svg">
<path d="M182.963 0H7.03704C3.15059 0 0 3.13401 0 7V49C0 52.866 3.15059 56 7.03704 56H182.963C186.849 56 190 52.866 190 49V7C190 3.13401 186.849 0 182.963 0Z" fill="black"/>
<path d="M182.963 1.12C184.531 1.12 186.034 1.7395 187.143 2.84221C188.251 3.94493 188.874 5.44053 188.874 7V49C188.874 50.5595 188.251 52.0551 187.143 53.1578C186.034 54.2605 184.531 54.88 182.963 54.88H7.03704C5.46931 54.88 3.9658 54.2605 2.85725 53.1578C1.7487 52.0551 1.12593 50.5595 1.12593 49V7C1.12593 5.44053 1.7487 3.94493 2.85725 2.84221C3.9658 1.7395 5.46931 1.12 7.03704 1.12H182.963ZM182.963 0H7.03704C5.1707 0 3.3808 0.737498 2.0611 2.05025C0.7414 3.36301 0 5.14348 0 7L0 49C0 50.8565 0.7414 52.637 2.0611 53.9497C3.3808 55.2625 5.1707 56 7.03704 56H182.963C184.829 56 186.619 55.2625 187.939 53.9497C189.259 52.637 190 50.8565 190 49V7C190 5.14348 189.259 3.36301 187.939 2.05025C186.619 0.737498 184.829 0 182.963 0V0Z" fill="#A6A6A6"/>
<path d="M95.9003 30.4503C94.7145 30.4531 93.5561 30.8055 92.5717 31.4632C91.5873 32.1208 90.821 33.0541 90.3698 34.1449C89.9186 35.2357 89.8027 36.4352 90.0368 37.5915C90.2708 38.7479 90.8444 39.8092 91.6848 40.6413C92.5253 41.4735 93.5949 42.039 94.7585 42.2664C95.922 42.4938 97.1273 42.3729 98.2217 41.9189C99.3162 41.465 100.251 40.6984 100.907 39.716C101.564 38.7337 101.913 37.5798 101.91 36.4003C101.921 35.6134 101.774 34.8322 101.475 34.1034C101.177 33.3745 100.734 32.7128 100.174 32.1576C99.6128 31.6024 98.9455 31.1652 98.2113 30.8719C97.4772 30.5785 96.6912 30.4352 95.9003 30.4503ZM95.9003 40.0123C95.1734 40.0628 94.4482 39.8947 93.8187 39.5298C93.1892 39.1649 92.6846 38.6201 92.3705 37.9661C92.0564 37.3121 91.9474 36.5793 92.0576 35.8629C92.1678 35.1465 92.492 34.4796 92.9883 33.9489C93.4845 33.4183 94.1298 33.0484 94.8402 32.8874C95.5505 32.7263 96.2932 32.7816 96.9716 33.046C97.6499 33.3104 98.2327 33.7717 98.644 34.3699C99.0553 34.9681 99.2763 35.6755 99.278 36.4003C99.3007 36.8595 99.2307 37.3186 99.0722 37.7505C98.9136 38.1824 98.6698 38.5783 98.355 38.9149C98.0402 39.2516 97.6608 39.5221 97.2392 39.7106C96.8176 39.899 96.3623 40.0016 95.9003 40.0123ZM82.7832 30.4503C81.5974 30.4531 80.4391 30.8055 79.4547 31.4632C78.4702 32.1208 77.704 33.0541 77.2528 34.1449C76.8016 35.2357 76.6857 36.4352 76.9197 37.5915C77.1538 38.7479 77.7273 39.8092 78.5678 40.6413C79.4082 41.4735 80.4779 42.039 81.6414 42.2664C82.805 42.4938 84.0102 42.3729 85.1047 41.9189C86.1992 41.465 87.1337 40.6984 87.7902 39.716C88.4467 38.7337 88.7956 37.5798 88.7929 36.4003C88.8043 35.6134 88.6565 34.8322 88.3582 34.1034C88.0599 33.3745 87.6172 32.7128 87.0565 32.1576C86.4957 31.6024 85.8284 31.1652 85.0943 30.8719C84.3602 30.5785 83.5742 30.4352 82.7832 30.4503ZM82.7832 40.0123C82.0564 40.0628 81.3311 39.8947 80.7016 39.5298C80.0721 39.1649 79.5675 38.6201 79.2535 37.9661C78.9394 37.3121 78.8304 36.5793 78.9405 35.8629C79.0507 35.1465 79.375 34.4796 79.8713 33.9489C80.3675 33.4183 81.0127 33.0484 81.7231 32.8874C82.4335 32.7263 83.1761 32.7816 83.8545 33.046C84.5329 33.3104 85.1156 33.7717 85.527 34.3699C85.9383 34.9681 86.1592 35.6755 86.161 36.4003C86.1837 36.8595 86.1137 37.3186 85.9551 37.7505C85.7966 38.1824 85.5527 38.5783 85.2379 38.9149C84.9231 39.2516 84.5437 39.5221 84.1222 39.7106C83.7006 39.899 83.2453 40.0016 82.7832 40.0123ZM67.1892 32.2843V34.8043H73.2692C73.1738 35.9912 72.6778 37.1112 71.8617 37.9823C71.2519 38.6004 70.5183 39.0843 69.7086 39.4026C68.8988 39.7209 68.0309 39.8666 67.161 39.8303C65.3693 39.8303 63.651 39.1223 62.3841 37.862C61.1172 36.6018 60.4055 34.8925 60.4055 33.1103C60.4055 31.328 61.1172 29.6188 62.3841 28.3585C63.651 27.0983 65.3693 26.3903 67.161 26.3903C68.8787 26.3649 70.5372 27.0137 71.7773 28.1963L73.5647 26.4183C72.7259 25.593 71.7299 24.9425 70.6351 24.505C69.5404 24.0675 68.3688 23.8517 67.1892 23.8703C65.938 23.8218 64.6898 24.0252 63.5195 24.468C62.3492 24.9109 61.2808 25.5843 60.3784 26.4477C59.4759 27.3111 58.758 28.3469 58.2676 29.493C57.7772 30.639 57.5244 31.8717 57.5244 33.1173C57.5244 34.3628 57.7772 35.5956 58.2676 36.7416C58.758 37.8877 59.4759 38.9234 60.3784 39.7869C61.2808 40.6503 62.3492 41.3236 63.5195 41.7665C64.6898 42.2094 65.938 42.4127 67.1892 42.3643C68.3931 42.4121 69.5936 42.2061 70.7118 41.7597C71.83 41.3133 72.8406 40.6367 73.6773 39.7743C75.1552 38.1593 75.9428 36.0351 75.8729 33.8523C75.8779 33.3269 75.8355 32.8021 75.7462 32.2843H67.1892ZM130.959 34.2443C130.592 33.1701 129.905 32.2322 128.991 31.5547C128.076 30.8772 126.976 30.492 125.836 30.4503C125.066 30.4488 124.304 30.6044 123.597 30.9074C122.89 31.2105 122.253 31.6546 121.725 32.2122C121.198 32.7699 120.791 33.4293 120.529 34.1496C120.268 34.87 120.158 35.636 120.206 36.4003C120.194 37.6783 120.598 38.9258 121.358 39.9566C122.117 40.9875 123.192 41.7462 124.42 42.1195C125.649 42.4928 126.966 42.4607 128.175 42.0279C129.384 41.5951 130.42 40.7849 131.128 39.7183L129.087 38.3183C128.783 38.8227 128.351 39.2392 127.835 39.5265C127.319 39.8138 126.737 39.962 126.145 39.9563C125.535 39.9813 124.932 39.8222 124.415 39.4999C123.897 39.1776 123.49 38.7071 123.246 38.1503L131.254 34.8603L130.959 34.2443ZM122.796 36.2323C122.767 35.7981 122.826 35.3627 122.97 34.9516C123.113 34.5405 123.337 34.162 123.63 33.8385C123.922 33.515 124.277 33.2529 124.672 33.0677C125.068 32.8826 125.497 32.778 125.934 32.7603C126.386 32.7315 126.837 32.8356 127.23 33.0597C127.623 33.2837 127.941 33.6178 128.144 34.0203L122.796 36.2323ZM116.294 42.0003H118.925V24.5003H116.294V42.0003ZM111.987 31.7803H111.888C111.489 31.3476 111.001 31.0051 110.457 30.7756C109.913 30.5462 109.326 30.4353 108.736 30.4503C107.198 30.5245 105.747 31.1845 104.685 32.2935C103.623 33.4025 103.031 34.8755 103.031 36.4073C103.031 37.939 103.623 39.412 104.685 40.5211C105.747 41.6301 107.198 42.2901 108.736 42.3643C109.333 42.3762 109.924 42.2569 110.469 42.0149C111.014 41.7729 111.499 41.4141 111.888 40.9643H111.987V41.8183C111.987 44.1003 110.762 45.3183 108.792 45.3183C108.134 45.3039 107.495 45.0953 106.956 44.7189C106.417 44.3425 106.003 43.8153 105.766 43.2043L103.486 44.1423C103.908 45.1954 104.641 46.0965 105.588 46.7265C106.535 47.3564 107.653 47.6855 108.792 47.6703C111.874 47.6703 114.422 45.8643 114.422 41.4683V30.8003H111.987V31.7803ZM108.961 40.0123C108.039 39.9551 107.173 39.5504 106.541 38.8806C105.908 38.2108 105.556 37.3263 105.556 36.4073C105.556 35.4882 105.908 34.6037 106.541 33.934C107.173 33.2642 108.039 32.8595 108.961 32.8023C109.412 32.8216 109.854 32.931 110.261 33.1238C110.669 33.3166 111.033 33.5889 111.332 33.9246C111.632 34.2603 111.86 34.6525 112.004 35.0778C112.148 35.5031 112.204 35.9528 112.17 36.4003C112.208 36.8493 112.155 37.3013 112.012 37.7291C111.87 38.1569 111.642 38.5515 111.342 38.8892C111.042 39.2268 110.677 39.5004 110.267 39.6935C109.858 39.8865 109.414 39.995 108.961 40.0123ZM143.288 24.5003H136.982V42.0003H139.614V35.3643H143.288C144.038 35.4179 144.791 35.3172 145.5 35.0685C146.209 34.8198 146.859 34.4284 147.41 33.9188C147.96 33.4091 148.399 32.7921 148.7 32.1062C149 31.4204 149.155 30.6803 149.155 29.9323C149.155 29.1842 149 28.4442 148.7 27.7583C148.399 27.0724 147.96 26.4554 147.41 25.9458C146.859 25.4361 146.209 25.0448 145.5 24.7961C144.791 24.5474 144.038 24.4467 143.288 24.5003ZM143.288 32.9003H139.614V26.9363H143.344C144.143 26.9363 144.909 27.2519 145.474 27.8138C146.038 28.3756 146.356 29.1377 146.356 29.9323C146.356 30.7269 146.038 31.4889 145.474 32.0508C144.909 32.6126 144.143 32.9283 143.344 32.9283L143.288 32.9003ZM159.529 30.3943C158.571 30.3355 157.616 30.5575 156.783 31.0327C155.95 31.508 155.275 32.2157 154.842 33.0683L157.165 34.0343C157.399 33.6134 157.751 33.2692 158.179 33.0431C158.606 32.817 159.089 32.7188 159.571 32.7603C159.905 32.7215 160.244 32.7492 160.567 32.8419C160.89 32.9347 161.192 33.0905 161.454 33.3003C161.716 33.5101 161.933 33.7697 162.093 34.064C162.253 34.3583 162.353 34.6813 162.386 35.0143V35.1823C161.54 34.7398 160.598 34.5091 159.642 34.5103C157.137 34.5103 154.575 35.9103 154.575 38.4583C154.6 38.9999 154.734 39.531 154.969 40.0201C155.204 40.5091 155.536 40.9462 155.944 41.3053C156.352 41.6645 156.829 41.9383 157.346 42.1106C157.862 42.2829 158.409 42.3501 158.952 42.3083C159.613 42.3446 160.271 42.2056 160.859 41.9055C161.448 41.6053 161.946 41.1549 162.302 40.6003H162.386V42.0003H164.92V35.2663C164.92 32.2003 162.583 30.4223 159.585 30.4223L159.529 30.3943ZM159.205 39.9843C158.347 39.9843 157.151 39.5503 157.151 38.5003C157.151 37.1003 158.642 36.6243 159.965 36.6243C160.801 36.6038 161.628 36.8068 162.358 37.2123C162.27 37.9726 161.907 38.6752 161.338 39.1901C160.769 39.7049 160.031 39.997 159.262 40.0123L159.205 39.9843ZM174.152 30.8003L171.14 38.3883H171.056L167.931 30.8003H165.117L169.803 41.4123L167.129 47.3063H169.944L177.08 30.8003H174.152ZM150.508 42.0003H153.125V24.5003H150.508V42.0003Z" fill="white"/>
<path d="M14.6938 10.555C14.2451 11.1067 14.0238 11.8072 14.0745 12.515V43.483C14.0266 44.1976 14.2644 44.902 14.736 45.443L14.8345 45.555L32.2301 28.209V27.789L14.7923 10.457L14.6938 10.555Z" fill="url(#paint0_linear)"/>
<path d="M37.9999 33.9918L32.2295 28.2098V27.7898L37.9999 22.0078L38.1265 22.0918L45.0369 25.9838C47.0073 27.0898 47.0073 28.9098 45.0369 30.0298L38.1547 33.9218L37.9999 33.9918Z" fill="url(#paint1_linear)"/>
<path d="M38.1689 33.922L32.2297 28L14.6934 45.444C15.0911 45.7961 15.6001 45.9987 16.1322 46.0166C16.6643 46.0345 17.186 45.8666 17.6067 45.542L38.1689 33.922Z" fill="url(#paint2_linear)"/>
<path d="M38.1689 22.0911L17.6067 10.4711C17.1887 10.142 16.6675 9.96996 16.1346 9.98532C15.6018 10.0007 15.0915 10.2024 14.6934 10.5551L32.2297 27.9991L38.1689 22.0911Z" fill="url(#paint3_linear)"/>
<path opacity="0.2" d="M38 33.7812L17.6067 45.3313C17.2013 45.6356 16.7072 45.8003 16.1993 45.8003C15.6914 45.8003 15.1973 45.6356 14.7919 45.3313L14.6934 45.4293L14.7919 45.5413C15.1973 45.8456 15.6914 46.0103 16.1993 46.0103C16.7072 46.0103 17.2013 45.8456 17.6067 45.5413L38.1689 33.9213L38 33.7812Z" fill="black"/>
<path opacity="0.12" d="M14.6937 45.2474C14.2417 44.6921 14.0201 43.9859 14.0745 43.2734V43.4834C14.0266 44.198 14.2643 44.9024 14.736 45.4434L14.8345 45.3454L14.6937 45.2474Z" fill="black"/>
<path opacity="0.12" d="M45.037 29.82L38 33.782L38.1267 33.922L45.037 30.016C45.4449 29.8444 45.7988 29.5666 46.0613 29.2118C46.3239 28.8571 46.4854 28.4384 46.5289 28C46.4409 28.3984 46.26 28.7707 46.0009 29.0868C45.7418 29.4029 45.4116 29.6541 45.037 29.82Z" fill="black"/>
<path opacity="0.25" d="M17.6068 10.6686L45.0372 26.1806C45.4118 26.3465 45.7419 26.5976 46.0011 26.9138C46.2602 27.2299 46.441 27.6022 46.529 28.0006C46.4856 27.5621 46.324 27.1435 46.0615 26.7887C45.7989 26.4339 45.4451 26.1561 45.0372 25.9846L17.6068 10.4726C15.6505 9.35256 14.0742 10.2766 14.0742 12.5166V12.7266C14.0742 10.4866 15.6505 9.56256 17.6068 10.6686Z" fill="white"/>
<path d="M59.2657 19.9788H58.2383V17.1788H59.1109C59.5035 16.7548 59.7987 16.251 59.9761 15.7022C60.1535 15.1535 60.2089 14.5729 60.1383 14.0008V9.80078H65.7679V17.1648H66.7109V19.9648H65.6694V18.2008H59.2657V19.9788ZM61.222 14.0008C61.2848 15.1254 61.0052 16.2427 60.4198 17.2068H64.642V10.8368H61.222V14.0008Z" fill="white" stroke="white" stroke-width="0.2" stroke-miterlimit="10"/>
<path d="M75.1697 17.1078C74.7632 17.5124 74.2805 17.8335 73.7492 18.0525C73.2179 18.2715 72.6485 18.3843 72.0734 18.3843C71.4983 18.3843 70.9288 18.2715 70.3975 18.0525C69.8662 17.8335 69.3836 17.5124 68.9771 17.1078C68.573 16.6978 68.2553 16.2117 68.0427 15.678C67.83 15.1443 67.7266 14.5737 67.7385 13.9998C67.7247 13.4267 67.8259 12.8568 68.0362 12.3231C68.2464 11.7895 68.5615 11.3029 68.963 10.8917C69.3695 10.4871 69.8522 10.166 70.3834 9.947C70.9147 9.72797 71.4842 9.61523 72.0593 9.61523C72.6344 9.61523 73.2039 9.72797 73.7351 9.947C74.2664 10.166 74.7491 10.4871 75.1556 10.8917C75.5647 11.2994 75.8876 11.7844 76.1051 12.3182C76.3227 12.852 76.4305 13.4238 76.4222 13.9998C76.4389 14.5756 76.3363 15.1486 76.1208 15.6833C75.9053 16.218 75.5815 16.7028 75.1697 17.1078ZM69.7793 16.4078C70.0758 16.7141 70.4325 16.9567 70.8271 17.1205C71.2217 17.2842 71.6458 17.3656 72.0734 17.3597C72.5012 17.3682 72.9262 17.2879 73.3211 17.124C73.7161 16.9601 74.0724 16.7162 74.3674 16.4078C74.6819 16.0919 74.9278 15.7153 75.09 15.3011C75.2522 14.8869 75.3272 14.4439 75.3104 13.9998C75.3272 13.5556 75.2522 13.1126 75.09 12.6984C74.9278 12.2842 74.6819 11.9076 74.3674 11.5917C74.0724 11.2833 73.7161 11.0394 73.3211 10.8755C72.9262 10.7116 72.5012 10.6313 72.0734 10.6397C71.6458 10.6338 71.2217 10.7153 70.8271 10.879C70.4325 11.0428 70.0758 11.2854 69.7793 11.5917C69.4694 11.9102 69.2274 12.2876 69.0677 12.7014C68.9081 13.1152 68.8342 13.5568 68.8504 13.9998C68.8342 14.4427 68.9081 14.8843 69.0677 15.2981C69.2274 15.7119 69.4694 16.0893 69.7793 16.4078Z" fill="white" stroke="white" stroke-width="0.2" stroke-miterlimit="10"/>
<path d="M81.8829 18.3827C81.3134 18.3916 80.7481 18.2858 80.2208 18.0717C79.6935 17.8575 79.2152 17.5395 78.8147 17.1367C78.3968 16.7298 78.0684 16.2409 77.8503 15.7011C77.6323 15.1612 77.5293 14.5822 77.5481 14.0007C77.5347 13.4228 77.639 12.8482 77.8547 12.3114C78.0705 11.7747 78.3932 11.2869 78.8034 10.8775C79.2137 10.4681 79.703 10.1455 80.2419 9.92917C80.7808 9.71284 81.3582 9.60724 81.9392 9.61873C82.5284 9.60215 83.1136 9.71965 83.6502 9.96228C84.1868 10.2049 84.6606 10.5662 85.0355 11.0187L84.2895 11.7467C84.013 11.3931 83.6553 11.1107 83.2463 10.9231C82.8373 10.7355 82.3891 10.6483 81.9392 10.6687C81.506 10.6577 81.0751 10.7353 80.6732 10.8967C80.2713 11.058 79.9071 11.2997 79.6029 11.6067C79.2793 11.9156 79.0235 12.2878 78.8516 12.6998C78.6796 13.1118 78.5952 13.5547 78.6036 14.0007C78.584 14.4473 78.6576 14.8932 78.8199 15.31C78.9822 15.7269 79.2297 16.1058 79.5466 16.4227C79.8508 16.7298 80.2151 16.9715 80.6169 17.1328C81.0188 17.2941 81.4497 17.3717 81.8829 17.3607C82.3738 17.3586 82.8581 17.2483 83.301 17.0377C83.7439 16.8271 84.1344 16.5214 84.4444 16.1427L85.2044 16.8847C84.8188 17.3443 84.339 17.7167 83.797 17.9767C83.1982 18.255 82.5436 18.3938 81.8829 18.3827Z" fill="white" stroke="white" stroke-width="0.2" stroke-miterlimit="10"/>
<path d="M89.6239 18.2008H88.5402V10.8368H86.1758V9.80078H91.9743V10.8368H89.6239V18.2008Z" fill="white" stroke="white" stroke-width="0.2" stroke-miterlimit="10"/>
<path d="M99.4335 9.80078L96.2386 16.8848C96.1612 17.1688 96.0225 17.4327 95.8323 17.6581C95.6421 17.8835 95.405 18.0651 95.1372 18.1903C94.8694 18.3155 94.5775 18.3813 94.2817 18.3831C93.9858 18.3849 93.6931 18.3227 93.4238 18.2008L93.7053 17.2068C93.8775 17.303 94.0708 17.3559 94.2683 17.3608C94.4766 17.3712 94.683 17.3174 94.8594 17.2068C95.0303 17.0653 95.1613 16.8819 95.2394 16.6748L95.549 16.0028L92.7061 9.80078H93.9868L96.0698 14.6168L98.1527 9.80078H99.4335Z" fill="white" stroke="white" stroke-width="0.2" stroke-miterlimit="10"/>
<path d="M100.658 18.2008V9.80078H106.766V18.2008H105.683V10.8368H101.742V18.2008H100.658Z" fill="white" stroke="white" stroke-width="0.2" stroke-miterlimit="10"/>
<path d="M108.694 18.2008V9.80078H109.778V13.3988H114V9.80078H115.098V18.2008H114V14.4068H109.778V18.2008H108.694Z" fill="white" stroke="white" stroke-width="0.2" stroke-miterlimit="10"/>
<path d="M123.936 17.1085C123.53 17.5132 123.047 17.8342 122.516 18.0533C121.984 18.2723 121.415 18.385 120.84 18.385C120.265 18.385 119.695 18.2723 119.164 18.0533C118.633 17.8342 118.15 17.5132 117.744 17.1085C117.332 16.7036 117.008 16.2187 116.792 15.684C116.577 15.1494 116.474 14.5763 116.491 14.0005C116.474 13.4247 116.577 12.8516 116.792 12.317C117.008 11.7823 117.332 11.2974 117.744 10.8925C118.149 10.4883 118.63 10.1675 119.16 9.94868C119.691 9.72983 120.259 9.61719 120.833 9.61719C121.407 9.61719 121.975 9.72983 122.505 9.94868C123.035 10.1675 123.517 10.4883 123.922 10.8925C124.334 11.2974 124.658 11.7823 124.873 12.317C125.089 12.8516 125.191 13.4247 125.175 14.0005C125.193 14.5753 125.093 15.1478 124.88 15.6824C124.667 16.217 124.346 16.7024 123.936 17.1085ZM118.546 16.4085C118.841 16.7169 119.197 16.9608 119.592 17.1247C119.987 17.2887 120.412 17.3689 120.84 17.3605C121.267 17.3664 121.692 17.285 122.086 17.1212C122.481 16.9575 122.837 16.7149 123.134 16.4085C123.444 16.0901 123.686 15.7126 123.846 15.2988C124.005 14.885 124.079 14.4434 124.063 14.0005C124.079 13.5576 124.005 13.116 123.846 12.7022C123.686 12.2884 123.444 11.9109 123.134 11.5925C122.837 11.2861 122.481 11.0436 122.086 10.8798C121.692 10.7161 121.267 10.6346 120.84 10.6405C120.412 10.6321 119.987 10.7124 119.592 10.8763C119.197 11.0402 118.841 11.2841 118.546 11.5925C118.231 11.9083 117.985 12.285 117.823 12.6992C117.661 13.1134 117.586 13.5563 117.603 14.0005C117.586 14.4447 117.661 14.8876 117.823 15.3018C117.985 15.716 118.231 16.0927 118.546 16.4085Z" fill="white" stroke="white" stroke-width="0.2" stroke-miterlimit="10"/>
<path d="M129.608 18.2009V9.80091H132.662C133.296 9.79459 133.908 10.0243 134.38 10.4449C134.614 10.6485 134.801 10.9006 134.927 11.1835C135.054 11.4664 135.116 11.7734 135.111 12.0829C135.115 12.46 135.007 12.8299 134.802 13.1469C134.594 13.4475 134.307 13.685 133.971 13.8329C134.376 13.9675 134.729 14.2214 134.985 14.5609C135.253 14.8996 135.397 15.3195 135.393 15.7509C135.4 16.0737 135.336 16.394 135.204 16.6892C135.073 16.9844 134.878 17.2472 134.633 17.4589C134.144 17.9111 133.499 18.157 132.831 18.1449L129.608 18.2009ZM130.692 13.3989H132.662C132.847 13.4095 133.031 13.3785 133.202 13.3082C133.372 13.2379 133.525 13.1301 133.648 12.9929C133.886 12.7603 134.023 12.4433 134.028 12.1109C134.041 11.7775 133.925 11.4518 133.704 11.2009C133.586 11.0703 133.44 10.9675 133.277 10.8997C133.114 10.8319 132.938 10.8009 132.761 10.8089H130.692V13.3989ZM130.692 17.1649H132.874C133.066 17.1724 133.259 17.1373 133.436 17.0623C133.614 16.9873 133.772 16.8741 133.901 16.7309C134.144 16.4727 134.28 16.1326 134.281 15.7789C134.272 15.4282 134.132 15.0934 133.887 14.8409C133.751 14.6992 133.587 14.5874 133.405 14.5126C133.224 14.4379 133.028 14.4018 132.831 14.4069H130.692V17.1649Z" fill="white" stroke="white" stroke-width="0.2" stroke-miterlimit="10"/>
<defs>
<linearGradient id="paint0_linear" x1="30.6819" y1="12.193" x2="7.19024" y2="35.809" gradientUnits="userSpaceOnUse">
<stop stop-color="#00A0FF"/>
<stop offset="0.01" stop-color="#00A1FF"/>
<stop offset="0.26" stop-color="#00BEFF"/>
<stop offset="0.51" stop-color="#00D2FF"/>
<stop offset="0.76" stop-color="#00DFFF"/>
<stop offset="1" stop-color="#00E3FF"/>
</linearGradient>
<linearGradient id="paint1_linear" x1="47.6125" y1="27.9998" x2="13.5673" y2="27.9998" gradientUnits="userSpaceOnUse">
<stop stop-color="#FFE000"/>
<stop offset="0.41" stop-color="#FFBD00"/>
<stop offset="0.78" stop-color="#FFA500"/>
<stop offset="1" stop-color="#FF9C00"/>
</linearGradient>
<linearGradient id="paint2_linear" x1="34.946" y1="31.22" x2="3.08233" y2="63.2382" gradientUnits="userSpaceOnUse">
<stop stop-color="#FF3A44"/>
<stop offset="1" stop-color="#C31162"/>
</linearGradient>
<linearGradient id="paint3_linear" x1="10.2741" y1="0.251078" x2="24.4979" y2="14.5501" gradientUnits="userSpaceOnUse">
<stop stop-color="#32A071"/>
<stop offset="0.07" stop-color="#2DA771"/>
<stop offset="0.48" stop-color="#15CF74"/>
<stop offset="0.8" stop-color="#06E775"/>
<stop offset="1" stop-color="#00F076"/>
</linearGradient>
</defs>
</svg>
